<?xml version="1.0" standalone="no"?>
<!DOCTYPE svg PUBLIC "-//W3C//DTD SVG 20010904//EN"
 "http://www.w3.org/TR/2001/REC-SVG-20010904/DTD/svg10.dtd">
<svg version="1.0" xmlns="http://www.w3.org/2000/svg"
 width="1024.000000pt" height="1024.000000pt" viewBox="0 0 1024.000000 1024.000000"
 preserveAspectRatio="xMidYMid meet">
<metadata>
Created by potrace 1.14, written by Peter Selinger 2001-2017
</metadata>
<g transform="translate(0.000000,1024.000000) scale(0.100000,-0.100000)"
fill="#000000" stroke="none">
<path d="M4779 10229 c-969 -55 -1963 -428 -2759 -1035 -525 -400 -952 -877
-1303 -1459 -106 -175 -281 -533 -360 -735 -269 -685 -385 -1390 -349 -2127
35 -725 202 -1370 522 -2018 510 -1033 1332 -1847 2373 -2350 968 -468 2080
-616 3152 -420 1958 358 3552 1858 4034 3797 174 700 197 1457 66 2173 -184
1004 -684 1955 -1415 2685 -403 403 -840 716 -1355 970 -816 403 -1668 573
-2606 519z m362 -980 c452 -46 817 -414 859 -865 23 -262 -71 -546 -242 -724
-81 -85 -75 -82 -156 -64 -84 19 -92 35 -37 73 87 59 201 211 248 331 60 153
72 353 31 505 -49 185 -178 365 -337 474 -69 47 -200 106 -282 127 -94 24
-275 24 -370 0 -123 -31 -261 -105 -349 -187 -175 -163 -252 -330 -263 -570
-9 -183 28 -325 124 -481 25 -40 66 -118 92 -174 27 -55 66 -120 87 -144 36
-39 37 -42 14 -35 -14 4 -41 22 -60 39 -19 18 -58 49 -85 69 -111 79 -215 235
-268 402 -86 274 -49 566 102 798 172 263 430 409 772 436 9 0 63 -4 120 -10z
m-993 -41 c19 -19 14 -46 -8 -53 -22 -7 -50 9 -50 29 0 15 20 36 35 36 6 0 16
-5 23 -12z m2216 -84 c31 -12 15 -74 -19 -74 -7 0 -35 32 -35 40 0 8 28 40 35
40 2 0 10 -3 19 -6z m-2335 -97 c21 -9 61 -19 88 -23 l50 -6 -24 -24 c-28 -28
-83 -144 -83 -175 0 -16 -6 -12 -33 22 -40 53 -85 81 -135 83 l-38 1 29 30
c37 37 57 83 57 132 l0 38 25 -31 c14 -18 42 -39 64 -47z m-321 2 c4 -19 -27
-34 -41 -20 -14 14 0 43 20 39 10 -2 19 -10 21 -19z m2410 -15 c33 -22 31 -85
-4 -113 -35 -28 -65 -26 -98 4 -42 39 -33 95 19 123 22 12 48 8 83 -14z
m-2671 -141 l38 -16 -42 -18 c-35 -15 -44 -25 -54 -59 l-13 -42 -16 44 c-13
36 -22 45 -58 58 l-43 16 41 17 c32 12 45 25 58 55 l16 39 18 -39 c12 -28 28
-43 55 -55z m3391 50 c29 -39 -2 -103 -50 -103 -29 0 -42 9 -57 37 -16 31 -14
41 15 69 19 20 31 24 52 19 15 -3 33 -13 40 -22z m-220 -47 c6 -27 -11 -38
-33 -22 -17 12 -17 16 -6 30 17 20 35 16 39 -8z m-1473 -53 c72 -24 149 -103
169 -172 9 -30 16 -62 16 -70 0 -12 13 -17 56 -19 97 -4 194 -71 230 -158 28
-67 8 -221 -32 -255 -11 -9 -22 -2 -59 39 -53 59 -109 84 -183 83 -72 0 -128
-34 -194 -116 l-52 -65 -230 0 c-254 0 -279 5 -340 66 -95 95 -68 271 51 341
41 24 59 28 121 28 l72 -1 0 56 c0 103 76 209 174 244 56 20 142 19 201 -1z
m-1310 -88 c0 -22 -31 -33 -47 -17 -17 17 -1 44 24 40 15 -2 23 -10 23 -23z
m3080 -156 c17 -16 20 -34 22 -107 2 -119 -3 -142 -33 -142 -24 0 -24 2 -24
95 l0 95 -230 0 -230 0 0 -58 0 -59 -29 5 c-22 3 -30 0 -34 -15 -3 -10 -5 25
-6 78 -1 80 2 99 17 112 22 20 70 23 322 18 186 -3 207 -5 225 -22z m-3247
-30 c70 -17 103 -32 89 -41 -8 -5 -3 -8 11 -8 13 0 20 -4 17 -10 -3 -5 -1 -10
4 -10 19 0 53 -41 47 -56 -3 -8 4 -34 15 -56 12 -23 23 -61 24 -85 2 -24 8
-49 14 -56 7 -10 4 -26 -14 -62 -14 -27 -25 -61 -25 -77 0 -29 -8 -32 -57 -28
-17 1 -26 -7 -37 -34 -9 -22 -26 -40 -41 -46 -49 -19 -55 -14 -55 40 0 48 2
51 38 67 53 25 85 91 77 156 -8 69 -23 94 -73 127 -56 37 -116 40 -179 9 -108
-52 -132 -173 -51 -264 16 -19 41 -38 54 -41 22 -6 24 -12 24 -60 0 -31 -4
-54 -10 -54 -25 0 -71 33 -86 61 -10 19 -21 29 -30 25 -24 -9 -64 12 -64 33 0
11 -11 46 -25 77 -14 31 -22 61 -19 66 3 5 13 41 21 80 8 39 22 82 31 96 9 13
17 33 17 44 2 25 69 85 109 97 74 23 110 25 174 10z m-1096 -40 c29 -6 87 -27
128 -46 141 -67 280 -240 280 -349 0 -24 4 -46 10 -49 7 -4 12 -125 5 -125
-18 0 -63 25 -59 32 3 5 0 8 -7 7 -19 -4 -84 19 -143 51 -28 15 -70 33 -93 40
-29 9 -50 24 -68 51 -72 103 -245 104 -334 2 -79 -89 -73 -215 12 -295 45 -42
89 -58 164 -59 l49 -2 23 -61 c53 -144 56 -157 42 -165 -11 -7 -10 -11 4 -19
12 -6 16 -16 12 -26 -4 -10 -11 -15 -16 -11 -5 3 -12 1 -16 -4 -3 -6 3 -8 15
-6 11 2 20 0 20 -5 0 -16 -132 -30 -190 -21 -89 15 -171 41 -232 73 -57 30
-165 130 -161 148 2 6 -1 10 -6 10 -30 0 -102 211 -86 253 4 8 1 33 -5 55 -8
32 -7 57 4 110 42 202 215 370 421 412 60 12 167 11 227 -1z m4706 -126 c72
-35 132 -68 132 -73 0 -50 -34 -51 -97 -2 -61 49 -84 61 -153 83 -47 14 -55
20 -58 44 -3 24 -1 26 20 20 13 -4 83 -36 156 -72z m-3943 -32 c-3 -6 -11 -11
-17 -11 -6 0 -6 6 2 15 14 17 26 13 15 -4z m395 -71 c0 -19 -7 -20 -135 -20
-110 0 -135 3 -135 14 0 22 15 24 148 25 116 1 122 0 122 -19z m3431 -69 l24
-19 -3 -314 -2 -313 -26 -22 -25 -23 -484 0 -484 0 -28 24 -28 24 -3 288 c-2
158 -1 298 3 311 3 13 14 32 25 43 19 19 35 20 514 20 472 0 495 -1 517 -19z
m593 -10 c22 -25 13 -58 -20 -73 -19 -9 -28 -8 -44 7 -24 22 -25 42 -3 67 21
23 45 23 67 -1z m-4034 -21 c0 -20 -5 -21 -117 -18 -103 3 -118 5 -121 21 -3
15 8 17 117 17 115 0 121 -1 121 -20z m-1301 -102 c5 -13 12 -38 16 -55 6 -33
6 -33 -30 -33 -20 0 -45 -5 -56 -10 -15 -9 -19 -7 -19 6 0 26 31 83 54 99 26
19 25 19 35 -7z m3008 -23 c31 -21 63 -73 63 -105 -1 -23 -2 -24 -14 -7 -13
16 -14 16 -21 -10 -9 -39 -21 -50 -73 -73 -61 -27 -79 -25 -118 14 -29 29 -34
41 -34 81 0 61 13 83 63 106 47 22 94 20 134 -6z m2770 -65 c60 -26 128 -94
160 -157 22 -46 27 -69 26 -132 0 -101 -27 -165 -99 -230 -65 -60 -134 -86
-224 -85 -80 1 -141 26 -205 85 -121 111 -138 295 -40 423 82 108 254 152 382
96z m-798 -43 c29 -18 72 -49 95 -69 36 -32 38 -37 19 -38 -12 0 -54 13 -95
29 -40 15 -81 31 -90 34 -13 5 -18 17 -18 48 0 48 2 48 89 -4z m-2519 -22 c31
-16 60 -61 60 -92 0 -15 -2 -16 -11 -3 -9 13 -11 13 -16 1 -12 -30 -53 -61
-79 -61 -62 0 -96 78 -53 121 27 27 21 32 -15 14 -26 -14 -27 -14 -15 1 29 35
83 43 129 19z m-2042 -97 c519 -267 712 -389 1015 -641 189 -157 617 -552 617
-570 0 -11 -71 -129 -83 -138 -4 -3 -31 17 -59 45 -29 28 -60 52 -70 52 -9 1
-15 -2 -12 -7 2 -4 11 -6 19 -2 10 3 15 -1 15 -12 0 -9 9 -19 19 -22 11 -3 17
-11 15 -17 -3 -7 3 -19 13 -26 15 -12 16 -12 6 0 -20 22 -15 35 6 16 10 -9 18
-29 19 -43 0 -25 -1 -26 -14 -8 -16 22 -19 12 -4 -15 7 -13 5 -24 -8 -40 l-17
-22 -19 21 c-11 12 -16 24 -12 28 4 4 11 2 15 -5 5 -9 8 -2 9 17 0 19 -4 31
-12 31 -18 0 -58 45 -49 55 5 4 3 5 -3 2 -7 -4 -18 1 -25 10 -12 15 -12 16 3
10 12 -4 15 -2 11 9 -3 7 -9 14 -13 14 -13 0 -21 -33 -11 -43 5 -5 7 -15 5
-22 -3 -7 -1 -16 5 -20 6 -3 11 -1 11 5 0 6 5 8 11 5 6 -4 8 -13 5 -21 -3 -7
0 -11 7 -9 7 3 19 1 27 -5 12 -7 12 -12 3 -21 -10 -10 -38 13 -134 107 -66 65
-127 131 -135 146 -8 16 -19 27 -25 25 -7 -1 -14 5 -16 13 -4 13 -3 13 6 0 9
-12 11 -9 11 13 0 16 4 26 10 22 6 -3 10 -1 10 4 0 6 -9 11 -20 11 -19 0 -24
14 -23 58 1 6 -3 12 -8 12 -5 0 -9 7 -9 17 0 14 3 14 22 -3 25 -22 20 -12 -32
66 -50 74 -108 132 -165 166 -68 39 -172 45 -256 14 -57 -20 -62 -21 -79 -5
-10 9 -24 14 -29 10 -6 -3 -11 -2 -11 4 0 6 -6 8 -14 5 -8 -3 -17 -1 -21 5 -4
7 1 8 12 4 16 -6 17 -5 3 13 -14 19 -14 19 8 0 40 -34 23 -4 -25 45 -26 26
-51 45 -56 42 -6 -3 -7 -1 -3 5 3 6 -4 19 -16 29 -13 10 -41 38 -63 63 -22 25
-41 44 -42 43 -2 -2 -3 0 -3 5 -1 4 -15 22 -32 39 -25 26 -34 30 -45 21 -14
-11 -4 -31 17 -34 6 -1 12 -3 15 -4 3 -1 10 -3 16 -4 15 -1 21 -57 8 -72 -7
-9 -27 -11 -57 -8 -53 6 -108 -8 -104 -25 3 -15 -41 -14 -56 1 -9 9 -12 8 -12
-7 0 -13 -7 -7 -20 18 -11 21 -17 43 -14 49 4 6 3 8 -3 5 -5 -3 -24 24 -41 61
-82 177 -117 256 -159 357 -62 153 -63 155 -58 155 3 0 94 -46 203 -102z
m4583 -238 c5 0 9 -5 9 -11 0 -5 -4 -8 -9 -5 -5 3 -29 -5 -55 -18 l-46 -23 0
64 0 64 46 -36 c26 -19 51 -35 55 -35z m-5668 -59 c8 -9 28 -41 47 -71 18 -30
52 -78 76 -107 45 -52 54 -73 32 -73 -21 0 -109 102 -138 161 -33 65 -70 170
-69 196 0 10 9 -6 20 -36 10 -30 25 -61 32 -70z m3178 37 c4 -84 -2 -102 -47
-144 l-44 -41 0 82 c0 72 3 84 23 102 20 19 41 30 60 32 4 1 8 -14 8 -31z
m-916 -13 c33 -9 64 -20 68 -24 4 -4 -6 -34 -23 -65 -21 -41 -30 -51 -30 -35
0 32 -12 15 -15 -21 -2 -17 -4 -33 -6 -35 -2 -2 -40 -1 -85 2 -76 5 -83 8
-123 44 -23 22 -47 39 -52 39 -18 0 -120 83 -112 91 31 30 271 33 378 4z
m1112 8 c3 -6 -9 -19 -26 -27 -32 -17 -42 -8 -33 27 5 20 53 20 59 0z m2418
-74 c44 -37 106 -94 139 -127 l58 -60 -28 -6 c-16 -3 -114 -19 -219 -36 -104
-16 -214 -34 -243 -38 -48 -8 -51 -8 -39 7 66 77 121 154 172 239 33 55 65 97
70 94 6 -3 46 -36 90 -73z m-3180 -9 c61 -37 83 -134 39 -170 -20 -17 -28 -6
-14 19 14 28 4 27 -31 -3 -66 -56 -181 -36 -187 33 -10 107 102 177 193 121z
m930 -46 l6 -40 -50 -24 c-28 -13 -59 -32 -68 -42 -16 -18 -16 -21 0 -51 10
-18 40 -56 67 -85 47 -51 50 -53 72 -38 42 27 117 30 183 8 l60 -21 45 32 c25
18 64 46 87 62 23 17 42 35 43 42 0 11 -46 54 -78 72 -14 8 -13 13 11 50 15
23 31 41 35 41 4 0 41 -31 82 -68 l74 -69 -34 -31 c-19 -18 -77 -64 -128 -103
-84 -65 -91 -73 -78 -88 21 -23 37 -69 45 -126 4 -33 11 -50 21 -52 77 -10 91
-15 80 -27 -6 -8 -30 -19 -54 -25 -31 -7 -51 -21 -70 -46 -15 -20 -39 -46 -54
-60 -26 -24 -26 -25 -9 -60 17 -35 15 -109 -3 -120 -3 -2 -21 26 -39 63 l-32
67 -72 -3 c-61 -3 -80 1 -121 22 l-49 25 -73 -67 c-41 -37 -74 -69 -74 -72 1
-10 46 -55 73 -73 33 -22 34 -34 2 -72 l-25 -30 -20 24 c-11 13 -20 20 -20 15
0 -4 -16 7 -35 26 -20 19 -33 40 -30 48 3 7 -1 12 -10 10 -7 -2 -20 6 -29 17
-13 18 -10 24 43 75 31 30 79 72 108 94 l51 39 -24 51 c-13 28 -24 61 -24 72
0 21 -5 22 -115 23 -84 1 -115 -1 -115 -10 0 -7 -9 -2 -20 11 -11 13 -20 19
-20 14 0 -5 -4 -4 -8 2 -10 15 -57 30 -48 15 4 -6 3 -11 -3 -11 -5 0 -12 -8
-14 -17 -3 -10 -5 8 -6 40 -1 51 1 58 17 53 9 -2 32 -7 50 -11 29 -6 32 -5 32
19 0 19 5 26 20 26 16 0 20 -7 20 -30 0 -35 6 -37 133 -43 77 -4 87 -3 87 12
0 10 11 39 24 66 l25 48 -60 74 c-32 41 -59 80 -59 86 0 8 -3 8 -9 -1 -6 -10
-18 -3 -49 30 l-41 43 21 23 c47 50 223 141 239 124 4 -4 10 -25 14 -48z m287
40 c4 -3 0 -21 -10 -40 -15 -33 -19 -35 -52 -29 -48 9 -50 11 -50 52 l0 36 52
-7 c28 -4 55 -9 60 -12z m-2441 -61 c13 -16 12 -17 -3 -4 -10 7 -18 15 -18 17
0 8 8 3 21 -13z m886 -35 c-3 -8 -6 -5 -6 6 -1 11 2 17 5 13 3 -3 4 -12 1 -19z
m-2113 -29 c-3 -5 -10 -7 -15 -3 -5 3 -7 10 -3 15 3 5 10 7 15 3 5 -3 7 -10 3
-15z m67 -12 c-10 -9 -11 -8 -5 6 3 10 9 15 12 12 3 -3 0 -11 -7 -18z m1259
-48 c0 -5 -5 -9 -11 -9 -5 0 -8 4 -5 9 3 5 -1 15 -10 22 -13 11 -15 11 -14 -2
5 -34 0 -39 -42 -37 l-43 1 38 4 c31 4 37 8 37 27 0 12 3 26 7 30 8 8 43 -29
43 -45z m5300 21 c0 -5 -2 -10 -4 -10 -3 0 -8 5 -11 10 -3 6 -1 10 4 10 6 0
11 -4 11 -10z m-2539 -91 c17 -27 30 -51 28 -54 -2 -2 -16 -6 -30 -10 -24 -6
-28 -2 -43 34 -9 23 -16 55 -16 72 0 26 2 29 14 19 8 -6 29 -34 47 -61z m532
20 c233 -106 426 -219 485 -281 l23 -25 -58 -38 c-42 -28 -58 -34 -62 -24 -10
32 -110 120 -166 145 -110 51 -240 26 -331 -62 -51 -50 -86 -54 -98 -12 -9 36
-7 106 4 113 13 8 13 62 -1 127 l-12 52 34 28 c18 15 41 28 51 28 10 0 69 -23
131 -51z m-4033 -19 c0 -5 -29 -51 -64 -102 -106 -152 -199 -300 -199 -314 0
-8 -3 -12 -5 -9 -5 5 -42 -50 -42 -62 0 -3 9 4 20 17 21 25 26 20 10 -10 -11
-21 9 -34 36 -23 14 5 15 1 9 -25 -4 -21 -3 -32 4 -32 6 0 11 14 11 30 0 17 4
30 8 30 12 0 1 -74 -12 -83 -7 -6 -4 -7 7 -3 13 4 20 0 24 -14 5 -19 6 -20 19
-3 25 33 14 6 -27 -68 -124 -223 -164 -299 -189 -358 -43 -103 -45 -111 -21
-111 16 0 21 -6 21 -25 0 -30 2 -29 -120 -44 -52 -6 -122 -19 -155 -29 l-60
-19 3 -40 c2 -32 -1 -41 -15 -46 -10 -2 -26 -8 -35 -12 -12 -5 -21 2 -33 24
l-16 31 -48 -25 c-67 -33 -199 -136 -239 -185 -18 -22 -36 -40 -40 -40 -4 1
-18 10 -31 21 l-24 20 54 56 c70 71 159 139 242 183 l65 35 22 75 c71 245 227
590 359 795 59 90 153 218 259 352 15 20 26 22 110 23 53 0 92 -4 92 -10z
m824 -11 c3 -3 -4 -5 -14 -6 -11 -1 -22 2 -25 8 -6 9 30 7 39 -2z m1186 -19
c0 -5 -5 -10 -11 -10 -5 0 -7 5 -4 10 3 6 8 10 11 10 2 0 4 -4 4 -10z m30 -42
c0 -6 -6 -5 -15 2 -8 7 -15 14 -15 16 0 2 7 1 15 -2 8 -4 15 -11 15 -16z
m-1710 -71 l36 -72 -22 -65 c-12 -36 -27 -103 -34 -150 -23 -156 20 -385 99
-518 55 -94 63 -112 48 -112 -7 0 -42 17 -76 38 -170 102 -233 234 -232 482 0
118 19 221 58 318 26 66 73 152 83 152 3 0 21 -33 40 -73z m1778 29 c7 2 8 0
2 -3 -7 -3 -5 -13 6 -27 9 -11 -2 -1 -24 22 -23 24 -42 47 -42 50 0 4 11 -5
23 -19 13 -14 28 -24 35 -23z m3698 18 c-3 -9 -6 -21 -6 -27 0 -7 -5 -4 -11 6
-11 18 -5 37 13 37 5 0 7 -7 4 -16z m-380 -81 c148 -199 319 -532 420 -820
l18 -53 162 0 c135 0 163 3 168 15 3 8 1 15 -5 15 -6 0 -8 4 -4 10 3 5 12 7
21 3 8 -3 12 -8 10 -11 -3 -3 -1 -11 5 -19 8 -9 40 -13 110 -13 99 0 99 0 99
-25 l0 -25 -337 0 -338 0 -22 -33 c-12 -17 -53 -81 -92 -142 -41 -64 -72 -103
-75 -95 -2 8 -23 76 -46 150 -103 334 -279 673 -485 937 -50 65 -80 112 -75
117 5 5 40 20 77 32 58 20 89 24 203 24 l136 0 50 -67z m-4531 47 c3 -5 1 -10
-4 -10 -6 0 -11 5 -11 10 0 6 2 10 4 10 3 0 8 -4 11 -10z m335 -41 c54 -12
160 -82 181 -120 8 -16 -1 -12 -37 17 -66 54 -132 84 -196 89 -29 2 -42 2 -28
-1 52 -10 56 -15 29 -30 -15 -7 -49 -21 -75 -30 -27 -9 -61 -25 -75 -35 -25
-17 -26 -17 -40 2 -7 11 -19 17 -26 15 -7 -3 -10 1 -7 9 3 8 13 11 21 8 11 -4
14 -2 9 5 -5 8 -2 10 9 6 11 -5 13 -10 5 -19 -8 -9 -8 -15 0 -20 5 -3 10 1 10
9 0 9 5 16 12 16 6 0 3 6 -8 14 -18 14 -17 14 14 10 36 -6 44 12 11 25 -21 7
-20 8 7 19 62 24 111 27 184 11z m4671 -46 c10 -32 10 -38 -7 -50 -17 -13 -21
-10 -39 27 -17 36 -17 42 -5 50 27 17 38 11 51 -27z m-2240 -66 c-6 -6 -49 -7
-114 -2 l-105 7 -4 29 c-3 16 -2 31 0 34 3 3 48 5 101 5 53 0 103 5 111 10 12
8 16 2 18 -32 2 -22 -1 -45 -7 -51z m2014 43 c3 -5 1 -10 -4 -10 -6 0 -11 5
-11 10 0 6 2 10 4 10 3 0 8 -4 11 -10z m-808 -166 c251 -310 430 -718 509
-1164 27 -155 31 -262 10 -282 -8 -8 -16 -23 -20 -34 -3 -10 -3 -2 0 19 3 22
1 37 -6 37 -5 0 -10 -7 -10 -15 0 -8 -7 -15 -16 -15 -9 0 -14 -6 -11 -12 2 -7
10 -12 16 -11 6 2 11 -5 11 -14 0 -9 -3 -13 -6 -10 -4 3 -15 -5 -26 -18 -19
-25 -48 -34 -48 -16 0 6 -13 18 -30 27 l-29 18 32 28 c17 15 26 27 20 28 -7 0
-14 10 -14 23 -1 14 -4 10 -8 -12 -3 -19 -12 -36 -18 -39 -10 -3 -13 18 -13
84 0 48 -7 124 -15 168 -12 71 -23 160 -25 205 0 11 -6 9 -22 -6 -31 -28 -56
-34 -102 -23 -56 13 -97 57 -103 112 -13 111 95 174 200 118 20 -11 37 -18 37
-15 0 3 -20 25 -45 49 -25 25 -45 49 -45 55 0 6 -5 22 -12 36 -13 29 -52 34
-79 9 -15 -13 -15 -18 -3 -43 16 -32 9 -62 -12 -54 -8 3 -14 1 -14 -5 0 -5 -9
-12 -20 -15 -11 -3 -20 -13 -20 -22 0 -9 -4 -13 -10 -10 -5 3 -10 -3 -10 -13
0 -22 -29 -38 -35 -19 -2 6 -22 63 -45 125 -66 179 -159 341 -302 523 l-75 96
54 42 c83 64 78 65 137 -21 21 -32 44 -58 51 -58 22 0 45 11 45 22 0 6 -7 7
-16 4 -14 -5 -15 -4 -4 9 12 14 7 19 -13 16 -5 -1 -6 3 -3 7 5 8 -60 102 -71
102 -2 0 -1 -4 2 -10 3 -6 -1 -7 -9 -4 -14 5 -14 8 1 22 9 10 44 36 77 59 47
32 63 39 71 30 6 -7 47 -58 92 -113z m1437 105 c58 -45 10 -135 -58 -109 -49
18 -59 68 -21 105 29 30 45 31 79 4z m-584 1 c0 -5 -4 -10 -10 -10 -5 0 -10 5
-10 10 0 6 5 10 10 10 6 0 10 -4 10 -10z m-1520 -26 c37 -15 80 -65 80 -93 0
-17 -61 -77 -97 -95 -69 -35 -116 -14 -146 66 -22 56 -12 89 35 118 40 24 75
25 128 4z m1771 -21 c7 -20 6 -28 -3 -35 -20 -12 -42 -5 -46 15 -9 48 32 65
49 20z m-221 -9 c0 -8 -5 -12 -10 -9 -6 4 -8 11 -5 16 9 14 15 11 15 -7z
m-5260 -57 c0 -5 -5 -5 -12 -1 -7 4 -8 3 -4 -5 4 -6 11 -9 14 -7 11 7 113
-194 106 -206 -5 -7 -2 -8 6 -3 10 6 12 4 7 -9 -4 -9 -3 -15 1 -12 5 3 17 -9
27 -26 10 -17 13 -28 7 -24 -8 5 -10 1 -5 -10 4 -11 2 -15 -4 -11 -6 4 -8 -4
-5 -21 5 -22 7 -23 10 -7 8 39 18 34 46 -21 l28 -56 -37 -38 c-21 -22 -43 -36
-49 -33 -6 3 -8 3 -4 -2 4 -4 -2 -21 -13 -37 -17 -23 -24 -26 -35 -17 -28 23
-83 125 -110 204 -24 69 -28 96 -28 200 -1 78 4 134 13 159 l14 39 13 -24 c7
-13 13 -28 14 -32z m407 1 c-3 -7 -5 -2 -5 12 0 14 2 19 5 13 2 -7 2 -19 0
-25z m-946 -21 c-10 -9 -11 -8 -5 6 3 10 9 15 12 12 3 -3 0 -11 -7 -18z m5839
13 c0 -5 -2 -10 -4 -10 -3 0 -8 5 -11 10 -3 6 -1 10 4 10 6 0 11 -4 11 -10z
m-2168 -36 c96 -70 133 -154 108 -251 -12 -51 -27 -68 -46 -52 -9 7 -25 -2
-56 -33 -44 -44 -104 -68 -168 -68 -43 0 -121 42 -148 79 -17 24 -30 31 -50
29 -26 -3 -27 -2 -30 59 -4 89 12 137 65 194 57 61 105 79 205 76 67 -2 81 -6
120 -33z m2396 -12 c2 -14 16 -27 36 -36 86 -36 85 -135 -1 -152 -27 -5 -37
-1 -63 24 -16 17 -30 40 -30 52 0 27 27 80 41 80 6 0 1 9 -12 20 -21 17 -22
21 -9 30 21 14 34 7 38 -18z m-6938 -2 c13 -8 10 -19 -18 -75 -31 -63 -56 -82
-68 -50 -5 13 54 135 66 135 3 0 12 -5 20 -10z m2660 -511 c0 -18 -73 -128
-81 -123 -5 3 -8 1 -7 -4 2 -5 -15 -37 -37 -70 l-40 -61 -42 41 c-23 23 -39
46 -36 52 3 6 2 8 -2 3 -11 -10 -86 63 -78 76 3 6 2 7 -4 4 -5 -4 -43 28 -83
69 l-74 75 -154 -153 c-85 -84 -151 -146 -147 -138 5 9 4 12 -1 7 -5 -5 -8
-12 -7 -15 1 -4 -20 -30 -48 -58 l-51 -51 -25 23 c-22 21 -24 26 -12 41 13 15
12 15 -8 4 -13 -6 -23 -10 -24 -9 -9 33 -6 38 14 33 17 -5 18 -4 8 4 -11 7 -6
10 20 13 22 2 40 -3 52 -14 21 -22 22 -32 3 -25 -10 4 -13 1 -9 -9 5 -13 8
-12 25 2 16 15 17 19 4 26 -25 14 0 68 31 68 16 0 22 -4 17 -12 -4 -7 -3 -8 4
-4 15 9 6 25 -42 80 -19 22 -39 37 -47 34 -8 -3 -29 -27 -48 -53 -28 -38 -30
-46 -15 -43 11 2 18 11 18 21 -1 9 2 17 7 17 16 0 9 -39 -8 -49 -10 -5 -15
-13 -11 -17 4 -4 14 -1 23 6 9 7 18 11 20 8 10 -10 -23 -29 -53 -31 -16 -1
-28 -5 -26 -9 9 -13 -22 -15 -59 -2 -21 8 -67 17 -102 20 l-65 7 32 36 c17 20
175 183 351 363 l320 327 249 -251 c136 -138 248 -254 248 -259z m-1894 467
c-3 6 7 10 25 10 16 0 29 -1 29 -3 0 -2 -11 -21 -25 -42 -43 -65 -94 -41 -65
30 12 27 14 28 27 12 8 -10 12 -13 9 -7z m5994 0 c0 -11 -19 -15 -25 -6 -3 5
1 10 9 10 9 0 16 -2 16 -4z m-6603 -58 c-3 -8 -6 -5 -6 6 -1 11 2 17 5 13 3
-3 4 -12 1 -19z m3075 -128 c7 -75 31 -142 65 -183 13 -16 23 -37 23 -48 0
-34 28 -76 59 -89 31 -12 44 -11 136 11 77 18 106 17 119 -6 6 -11 16 -23 21
-27 15 -12 114 -9 136 3 17 9 25 6 46 -17 24 -26 27 -27 108 -21 79 6 85 5
128 -23 71 -45 133 -63 224 -64 50 -1 87 -6 95 -14 20 -20 62 -14 110 18 61
41 148 134 148 160 0 23 -13 24 150 -16 105 -27 463 -126 469 -130 2 -2 -21
-45 -51 -96 -30 -51 -78 -136 -106 -188 -27 -52 -80 -146 -116 -209 -36 -62
-66 -117 -66 -122 0 -5 -5 -9 -12 -9 -6 0 -8 -3 -5 -6 4 -4 -2 -19 -13 -34
-11 -16 -20 -33 -20 -40 0 -6 -5 -8 -12 -4 -7 4 -8 3 -4 -4 9 -15 -34 -93 -47
-85 -6 3 -7 1 -3 -5 9 -15 -12 -54 -24 -47 -6 3 -7 -1 -4 -9 3 -8 -1 -25 -10
-38 -19 -26 -21 -17 -4 15 10 21 10 21 -7 7 -17 -14 -17 -14 -7 7 15 27 15 46
2 38 -5 -3 -10 -2 -10 4 0 12 -27 8 -42 -7 -10 -10 -8 -19 6 -43 13 -22 15
-34 8 -41 -15 -15 -42 51 -31 74 5 9 9 23 9 30 0 7 -17 -15 -39 -50 -21 -34
-41 -65 -44 -69 -4 -3 -23 2 -44 12 -20 10 -57 20 -80 23 -24 2 -43 9 -43 13
0 5 5 9 10 9 6 0 10 5 10 10 0 7 -23 8 -65 4 -58 -6 -65 -5 -65 11 0 16 -8 17
-77 10 -43 -4 -81 -12 -84 -18 -4 -5 -9 -2 -13 9 -3 10 -4 -8 -2 -41 3 -52 2
-56 -7 -28 -5 17 -16 34 -24 38 -11 4 -13 1 -8 -12 4 -10 9 -32 12 -49 5 -28
9 -31 67 -42 33 -6 72 -14 86 -17 22 -5 23 -4 5 5 -16 9 -14 9 14 5 19 -3 39
-12 45 -20 7 -10 10 -70 8 -179 l-3 -163 -72 -11 c-40 -6 -93 -14 -118 -17
-44 -5 -47 -8 -59 -48 -17 -59 -62 -146 -104 -200 -20 -26 -36 -54 -36 -62 0
-9 14 -42 30 -75 17 -33 30 -67 29 -77 0 -10 -25 -38 -55 -61 -72 -57 -195
-142 -206 -142 -7 0 -90 84 -135 137 -18 21 -19 21 -88 6 -85 -18 -244 -12
-324 12 l-54 17 -66 -64 c-118 -114 -99 -109 -183 -46 -90 67 -188 156 -188
170 0 6 21 44 47 85 l46 75 -22 36 c-41 67 -80 156 -94 212 l-14 55 -84 16
c-46 9 -101 20 -123 23 l-38 7 6 57 c11 104 16 268 6 247 -5 -11 -9 -37 -9
-57 -1 -52 -22 -49 -51 8 -26 50 -40 64 -40 40 0 -32 -20 -15 -21 17 0 29 -1
30 -9 10 -8 -20 -30 -33 -30 -18 0 10 63 110 74 117 6 4 7 8 2 8 -4 0 3 15 18
34 14 19 26 38 26 43 0 5 16 33 36 63 20 30 39 62 43 70 6 17 66 116 158 265
85 137 136 229 136 242 0 7 4 10 8 8 9 -6 19 20 19 51 0 15 6 24 15 24 8 0 15
6 15 14 0 7 7 19 16 27 8 7 13 20 11 30 -3 9 0 23 5 30 8 11 8 10 4 -4 -3 -11
-2 -16 4 -12 6 3 10 18 10 33 0 25 32 67 43 56 3 -3 11 9 18 25 8 17 17 31 21
31 4 0 5 6 2 14 -3 7 2 16 11 19 8 4 20 17 25 29 6 13 18 37 29 53 10 17 16
39 13 50 -3 15 -1 17 6 6 12 -16 27 3 16 21 -4 6 -3 8 4 4 16 -10 92 117 78
131 -10 10 20 33 39 30 17 -2 21 -12 27 -67z m-3305 18 c50 -47 14 -128 -58
-128 -42 0 -79 35 -79 75 0 12 9 34 21 49 27 34 82 36 116 4z m7333 -23 c15
-19 4 -52 -21 -60 -21 -7 -49 9 -49 28 0 15 31 47 45 47 7 0 18 -7 25 -15z
m-6303 -178 c43 -86 63 -137 66 -172 3 -28 2 -42 0 -31 -4 16 -7 16 -33 -9
-51 -49 -140 -51 -156 -3 -4 15 -12 18 -27 14 -77 -22 -77 -22 -77 26 0 34 11
63 50 132 70 121 99 166 108 166 4 0 35 -55 69 -123z m3069 71 l13 -38 -37 -9
c-20 -5 -56 -12 -79 -15 -40 -6 -43 -5 -43 16 0 13 -3 33 -6 44 -5 19 0 23 43
32 78 17 94 12 109 -30z m967 -2 c100 -24 244 -59 320 -76 77 -18 152 -42 169
-54 42 -28 70 -78 72 -125 1 -43 -40 -128 -234 -486 -21 -38 -129 -239 -240
-445 -266 -493 -309 -569 -331 -580 -36 -20 -36 -9 -1 58 69 133 406 760 492
917 164 300 239 446 251 484 10 32 8 45 -9 84 -11 25 -32 53 -46 62 -19 13
-286 82 -623 160 -23 5 -34 45 -12 45 5 0 92 -20 192 -44z m-4933 -6 c0 -5 -5
-10 -11 -10 -5 0 -7 5 -4 10 3 6 8 10 11 10 2 0 4 -4 4 -10z m7044 -37 c3 -16
8 -38 12 -50 5 -20 2 -23 -19 -23 -21 0 -26 7 -35 42 -12 47 -9 58 17 58 12 0
21 -10 25 -27z m-4098 -19 c-4 -9 -9 -15 -11 -12 -3 3 -3 13 1 22 4 9 9 15 11
12 3 -3 3 -13 -1 -22z m-3218 -113 c11 -7 11 -16 1 -50 -10 -33 -17 -41 -36
-41 -26 0 -27 8 -12 63 10 37 22 44 47 28z m3133 -14 c-10 -9 -11 -8 -5 6 3
10 9 15 12 12 3 -3 0 -11 -7 -18z m4684 -41 c69 -25 69 -25 40 -36 -17 -6 -68
-23 -115 -37 -47 -14 -92 -27 -101 -30 -14 -4 -17 7 -18 80 l-2 85 63 -19 c35
-10 94 -30 133 -43z m-5830 -56 c-4 -6 -1 -18 7 -27 12 -15 11 -15 -9 -3 -16
11 -19 17 -11 27 13 16 22 17 13 3z m-2025 -56 c0 -4 -5 -24 -12 -45 -9 -32
-16 -39 -36 -39 -23 0 -24 2 -17 37 4 21 9 41 11 45 6 10 54 11 54 2z m2643
-257 c-9 -14 -234 225 -232 247 0 6 54 -45 119 -113 66 -68 117 -129 113 -134z
m4817 143 c0 -16 0 -33 1 -37 0 -5 -7 -9 -15 -11 -15 -3 -32 50 -21 68 14 22
35 10 35 -20z m-321 -156 c12 -49 30 -138 40 -199 l19 -110 -33 -35 c-50 -53
-111 -153 -135 -223 -17 -48 -23 -93 -27 -198 l-5 -137 -74 34 c-40 19 -79 34
-87 34 -12 0 -16 36 -19 223 -3 139 -12 269 -23 348 l-19 126 65 99 c36 54 73
111 82 127 10 15 24 27 32 27 8 0 19 8 25 18 11 16 11 16 6 0 -4 -15 1 -18 27
-18 18 0 39 4 47 10 9 6 17 5 23 -3 5 -7 6 3 2 23 -5 32 -4 31 13 -11 11 -26
29 -87 41 -135z m-6219 122 l35 -13 -23 -14 c-31 -19 -123 -145 -138 -189
l-12 -35 -79 -6 c-89 -8 -150 -26 -244 -75 -116 -61 -239 -189 -295 -306 -14
-29 -22 -45 -20 -35 4 10 2 15 -4 12 -6 -3 -10 -12 -10 -20 0 -8 -9 -20 -21
-28 -18 -13 -21 -28 -26 -176 l-6 -161 -57 0 c-97 0 -224 20 -237 38 -12 14
-13 14 -13 0 0 -18 -29 -28 -80 -28 -117 0 -200 75 -200 182 0 48 20 87 61
122 l32 27 171 -3 172 -3 -4 29 c-4 21 -1 27 8 21 8 -5 11 0 10 16 -1 13 -1
26 -1 29 1 3 4 21 6 41 12 110 201 338 365 437 46 29 87 52 90 52 4 0 17 -26
30 -57 13 -31 38 -72 55 -90 l31 -33 57 19 c31 11 88 23 125 27 l69 6 7 51 c3
29 1 56 -4 61 -16 16 -12 34 9 41 11 3 25 21 31 40 10 30 16 35 43 34 18 0 48
-6 67 -13z m-983 -4 c19 -12 -7 -96 -30 -100 -13 -3 -17 4 -17 33 0 36 14 75
28 75 4 0 13 -4 19 -8z m1491 -18 l60 -7 -34 -66 c-28 -52 -37 -86 -46 -162
l-11 -97 -41 -12 c-62 -19 -136 -58 -187 -101 l-46 -38 -69 34 c-38 19 -90 38
-116 41 -27 4 -48 11 -48 16 0 24 33 135 51 170 56 109 181 193 322 217 69 11
93 12 165 5z m6270 -41 c-2 -10 -10 -18 -18 -18 -8 0 -16 8 -18 18 -2 12 3 17
18 17 15 0 20 -5 18 -17z m-5869 -31 c41 -19 91 -94 91 -136 l-1 -31 -13 30
c-7 17 -20 36 -29 44 -15 12 -17 11 -17 -6 0 -44 -128 -132 -193 -133 -38 0
-87 49 -87 86 0 33 33 105 60 129 48 44 118 50 189 17z m5671 -19 c0 -16 3
-38 6 -50 6 -20 3 -23 -25 -23 -31 0 -31 1 -31 50 0 47 2 50 25 50 21 0 25 -5
25 -27z m-7600 -72 c0 -33 -19 -71 -35 -71 -16 0 -19 28 -9 68 8 28 44 30 44
3z m6010 -36 c3 -2 3 -30 0 -62 -5 -56 -7 -59 -45 -79 -22 -11 -44 -29 -50
-40 -5 -11 -56 -100 -111 -199 -56 -99 -128 -228 -160 -286 -36 -64 -64 -104
-72 -102 -8 3 -10 -1 -5 -14 6 -15 4 -16 -9 -5 -10 8 -17 9 -20 3 -1 -6 -9 -7
-16 -2 -14 8 -15 6 205 419 75 139 140 272 145 296 14 65 40 88 91 81 23 -4
44 -8 47 -10z m1608 -52 c2 -8 -5 -13 -17 -13 -12 0 -21 6 -21 16 0 18 31 15
38 -3z m-7590 -21 l24 -18 -51 -89 c-28 -48 -58 -110 -67 -137 -15 -45 -18
-48 -50 -48 -19 0 -34 5 -34 11 0 37 131 300 149 299 3 0 17 -9 29 -18z m2427
-52 c0 -12 -15 -14 -80 -12 -76 3 -83 2 -128 -29 -48 -32 -107 -115 -107 -151
0 -10 -4 -18 -10 -18 -14 0 -12 45 3 83 21 49 65 95 116 122 39 21 58 24 126
22 63 -2 80 -5 80 -17z m-1610 -47 c-4 -21 -8 -38 -8 -38 -180 -47 -280 -119
-350 -252 -45 -87 -59 -141 -59 -228 1 -91 30 -185 84 -265 24 -35 48 -72 54
-82 6 -10 14 -15 17 -11 4 3 7 2 7 -4 0 -5 -10 -15 -22 -21 -21 -11 -21 -11 7
-6 l30 5 -30 -15 c-16 -8 -25 -15 -19 -15 7 -1 15 -8 18 -16 17 -46 -115 80
-164 156 -89 138 -105 328 -40 482 45 108 116 198 202 256 67 45 189 89 252
90 27 1 28 0 21 -36z m880 -107 c48 -13 50 -15 50 -49 0 -29 7 -40 39 -66 21
-17 41 -31 44 -31 3 0 16 10 29 22 13 12 24 19 25 17 2 -2 16 -19 32 -37 l30
-32 -26 -27 -26 -28 16 -53 17 -52 43 6 42 6 0 -57 0 -57 -41 3 c-40 3 -41 2
-61 -44 l-21 -48 22 -23 c25 -26 21 -45 -16 -79 -19 -16 -21 -16 -38 3 -23 26
-27 25 -75 -7 -34 -24 -39 -33 -37 -62 2 -32 0 -34 -43 -47 -25 -8 -46 -14
-47 -14 -1 0 -4 14 -8 30 -6 29 -8 30 -66 30 -55 0 -59 -2 -59 -23 0 -35 -7
-37 -57 -20 -43 15 -45 17 -39 48 6 30 3 37 -29 61 -35 27 -37 27 -65 11 -28
-17 -29 -17 -55 15 l-27 32 27 22 26 21 -17 52 -17 53 -43 -7 -44 -6 0 50 0
51 39 0 c39 0 40 1 57 52 l17 52 -28 23 -27 24 27 34 c30 40 36 42 59 16 17
-19 19 -19 62 12 31 22 43 36 38 47 -18 42 -16 47 25 64 58 22 68 20 76 -15 5
-21 11 -29 22 -25 8 3 30 6 48 6 29 0 34 4 40 30 4 17 7 30 8 30 1 -1 25 -7
52 -14z m6109 -35 c75 -36 126 -90 165 -171 22 -46 26 -69 26 -140 0 -105 -28
-173 -102 -248 -61 -62 -153 -96 -258 -97 -60 0 -81 5 -137 33 -284 140 -263
538 35 644 80 29 187 21 271 -21z m-1732 -14 c13 -19 14 -32 7 -72 -11 -57
-11 -57 -56 -70 -31 -9 -42 -21 -83 -95 -124 -220 -147 -255 -167 -254 -15 0
-19 -4 -15 -15 5 -14 3 -14 -11 -2 -14 11 -17 11 -17 0 0 -12 -2 -12 -9 0 -6
10 -2 26 13 50 12 20 41 72 63 116 23 44 60 112 82 150 23 39 49 96 58 128 8
32 21 61 27 64 8 6 46 15 86 22 3 0 12 -10 22 -22z m-5057 -28 c81 -31 80 -26
35 -120 -21 -46 -40 -79 -40 -72 0 18 -79 60 -126 68 -86 14 -189 -45 -215
-122 -18 -56 -7 -134 25 -176 33 -42 98 -77 147 -77 41 0 126 39 153 69 l20
22 16 -53 c9 -29 14 -61 12 -72 -8 -30 -88 -59 -177 -64 -68 -3 -92 0 -154 22
-86 30 -113 52 -149 121 -23 43 -27 62 -27 140 0 82 3 96 33 157 76 156 269
223 447 157z m3565 -159 c0 -17 -7 -20 -39 -20 -34 0 -38 3 -34 20 4 15 14 20
39 20 27 0 34 -4 34 -20z m275 -39 c-3 -6 -11 -11 -16 -11 -5 0 -4 6 3 14 14
16 24 13 13 -3z m207 -13 c-7 -7 -12 -8 -12 -2 0 14 12 26 19 19 2 -3 -1 -11
-7 -17z m-425 -14 c-3 -3 -12 -4 -19 -1 -8 3 -5 6 6 6 11 1 17 -2 13 -5z m53
2 c0 -3 -4 -8 -10 -11 -5 -3 -10 -1 -10 4 0 6 5 11 10 11 6 0 10 -2 10 -4z
m70 -11 c0 -8 -4 -15 -9 -15 -5 0 -11 7 -15 15 -3 9 0 15 9 15 8 0 15 -7 15
-15z m1422 -13 c-1 -7 -4 -37 -6 -65 -6 -72 -21 -107 -46 -107 -36 0 -57 -17
-89 -74 -34 -60 -69 -90 -95 -80 -24 9 -20 23 34 120 27 49 50 97 50 107 0 10
7 31 15 47 15 30 28 34 88 30 29 -2 34 8 15 29 -11 10 -8 12 12 9 14 -2 24 -9
22 -16z m-1145 -14 c-3 -8 -6 -5 -6 6 -1 11 2 17 5 13 3 -3 4 -12 1 -19z
m1798 -265 c71 -24 153 -64 215 -107 57 -39 103 -76 96 -76 -4 0 8 -14 26 -30
18 -17 29 -30 23 -29 -22 3 -27 -2 -16 -15 10 -12 9 -13 -8 -9 -11 3 -22 12
-26 20 -5 14 -8 14 -25 -2 -10 -9 -24 -14 -31 -9 -7 4 -10 3 -6 -3 4 -6 21
-16 39 -24 93 -37 233 -160 339 -299 160 -209 243 -525 204 -772 -18 -112 -61
-251 -107 -342 -35 -71 -132 -201 -164 -223 -13 -8 -21 -19 -18 -24 3 -5 -2
-6 -10 -3 -23 9 -20 19 22 63 20 22 42 48 48 58 147 244 185 364 186 588 1
283 -87 506 -277 700 -137 141 -278 224 -458 270 -464 117 -934 -95 -1135
-513 -22 -46 -39 -71 -47 -68 -7 2 -50 10 -96 17 -166 24 -348 -10 -480 -90
-70 -43 -168 -136 -213 -203 l-33 -48 -1 31 c-2 74 126 212 265 286 118 63
227 86 378 80 66 -2 129 -8 141 -12 18 -6 24 0 38 36 49 122 155 259 287 369
49 41 54 48 40 60 -13 13 -14 12 -8 -3 3 -9 2 -17 -3 -17 -4 0 -11 14 -15 30
-4 17 -11 30 -16 30 -5 0 -9 7 -9 15 0 9 -8 6 -25 -11 -14 -14 -23 -29 -21
-33 3 -4 -5 -8 -16 -8 -18 -2 -14 6 22 42 27 27 49 41 59 38 13 -4 13 -3 2 5
-11 8 -5 18 29 48 106 97 242 167 385 200 89 20 341 12 420 -13z m-6925 -140
c18 -49 50 -121 72 -161 38 -69 39 -75 23 -90 -15 -16 -18 -15 -46 18 -43 51
-83 125 -114 213 -30 84 -28 107 8 107 21 0 28 -11 57 -87z m365 19 c41 -78
154 -195 236 -243 83 -50 191 -89 245 -89 87 0 98 -7 128 -72 15 -33 50 -83
77 -111 27 -28 49 -52 49 -53 0 -8 -66 18 -83 33 -30 28 -73 94 -86 136 -12
36 -14 37 -61 37 -41 0 -116 19 -215 55 -14 5 -16 4 -6 -3 11 -8 11 -11 0 -18
-8 -4 -14 -3 -17 5 -3 9 -7 9 -18 0 -18 -15 -74 6 -74 28 0 10 -6 13 -16 9 -8
-3 -12 -2 -9 3 12 21 -26 32 -107 32 -43 0 -60 4 -68 17 -9 16 -11 16 -21 -1
-5 -9 -14 -15 -20 -12 -18 12 -8 -17 19 -53 l27 -36 -27 19 c-15 11 -28 25
-28 30 0 6 -9 16 -20 23 -25 16 -26 32 -1 25 13 -3 23 3 32 19 17 31 21 58 9
58 -6 0 -10 -12 -10 -26 0 -20 -4 -25 -16 -20 -8 3 -12 2 -9 -4 3 -6 1 -10 -6
-10 -7 0 -9 9 -6 23 6 21 6 21 -13 -3 -15 -19 -20 -21 -20 -8 0 18 39 53 70
63 33 10 33 42 1 110 l-30 65 22 15 c33 23 40 19 72 -43z m2196 1 c47 -13 58
-20 54 -32 -4 -9 -43 -77 -89 -151 -200 -328 -277 -462 -273 -474 3 -7 47 -26
98 -44 92 -30 152 -51 389 -134 178 -63 162 -54 148 -83 -6 -14 -16 -24 -22
-22 -6 2 -87 30 -181 62 -393 133 -570 196 -579 205 -6 6 5 33 30 72 21 35 68
117 105 183 36 66 90 161 119 210 91 155 120 207 120 216 0 13 12 11 81 -8z
m-1167 -151 c129 -129 133 -134 141 -180 5 -28 2 -32 -22 -39 -16 -5 -57 -8
-93 -8 -54 0 -77 6 -134 35 -71 36 -88 53 -62 63 11 4 13 1 10 -11 -5 -14 -4
-15 5 -2 19 26 12 40 -36 70 -27 16 -53 33 -58 38 -6 5 -18 8 -27 6 -9 -1 -22
12 -31 31 l-15 32 63 18 c35 9 78 27 97 40 18 13 35 24 38 25 4 0 59 -53 124
-118z m4350 23 c60 -8 110 -16 112 -17 1 -2 -21 -34 -51 -71 -30 -37 -70 -96
-90 -131 l-35 -64 -42 11 c-30 7 -70 7 -147 -3 -58 -7 -117 -13 -130 -13 -22
1 -23 -1 -16 -45 14 -88 17 -83 -65 -111 -41 -15 -80 -30 -86 -34 -13 -8 -34
34 -34 68 0 15 -6 25 -14 25 -7 0 -33 32 -56 70 -23 39 -48 70 -56 70 -30 0
-24 -25 19 -68 25 -26 48 -58 52 -72 4 -14 16 -39 26 -56 28 -46 24 -57 -28
-94 -27 -19 -70 -51 -96 -73 l-48 -40 -33 32 c-19 18 -36 29 -40 23 -3 -5 8
-22 24 -37 17 -16 30 -33 30 -37 0 -5 -17 -29 -37 -54 l-38 -45 -31 37 c-32
37 -64 42 -64 9 0 -8 -9 -24 -21 -36 -12 -12 -19 -29 -16 -39 3 -12 -2 -20
-15 -23 -15 -4 -18 -11 -13 -28 5 -14 3 -19 -3 -15 -6 3 -13 -7 -17 -23 -3
-16 -13 -35 -21 -42 -8 -6 -14 -23 -14 -37 0 -13 -5 -53 -12 -88 l-11 -64 -65
0 c-81 0 -82 -23 -1 -30 l54 -5 3 -67 c2 -55 6 -68 19 -68 14 0 14 -3 -2 -20
-10 -11 -28 -19 -39 -19 -62 5 -86 -1 -86 -22 0 -20 4 -21 47 -15 26 3 50 11
53 17 7 10 50 -122 50 -153 0 -18 -18 -25 -75 -30 -22 -2 -31 -9 -33 -25 -4
-27 21 -30 80 -9 35 13 38 12 53 -10 10 -15 21 -21 33 -18 14 5 14 4 3 -4 -11
-8 -12 -16 -5 -33 10 -22 11 -22 23 9 16 39 26 41 29 6 1 -14 7 -33 12 -42 10
-15 10 -14 6 3 -12 45 -13 82 -1 82 7 0 10 -11 9 -26 -2 -17 -1 -19 2 -7 5 17
8 15 20 -13 8 -18 11 -38 7 -44 -3 -5 -1 -7 4 -4 10 6 23 -13 23 -33 0 -5 -74
-9 -165 -10 l-166 -1 -30 66 c-73 162 -108 387 -89 575 47 473 321 838 750
999 203 76 376 95 594 66z m326 -44 c0 -5 -7 -12 -16 -15 -14 -5 -15 -4 -4 9
14 17 20 19 20 6z m1725 -76 c0 -25 -4 -30 -25 -30 -16 0 -26 6 -28 18 -6 30
6 49 30 45 18 -2 23 -9 23 -33z m-7450 -43 c-8 -8 -25 10 -25 26 0 13 2 13 14
-4 8 -10 13 -21 11 -22z m50 -32 c3 -5 1 -10 -4 -10 -6 0 -11 5 -11 10 0 6 2
10 4 10 3 0 8 -4 11 -10z m-11 -46 c3 -8 2 -12 -4 -9 -6 3 -10 10 -10 16 0 14
7 11 14 -7z m6498 -18 c185 -36 375 -171 477 -341 63 -104 93 -205 98 -337 6
-130 -4 -201 -42 -297 -83 -212 -266 -365 -530 -442 l-80 -24 -700 0 -700 0
-65 31 c-114 54 -178 127 -219 251 -47 141 -7 307 107 442 56 66 116 105 202
132 75 23 192 27 260 9 162 -43 292 -184 324 -352 12 -63 20 -72 30 -32 4 15
33 52 64 84 77 77 146 104 262 104 75 1 93 -3 151 -31 86 -40 138 -88 180
-165 29 -55 34 -74 37 -155 4 -85 -10 -161 -44 -239 -6 -14 100 -8 191 12 129
27 276 112 355 205 23 27 59 80 81 117 34 58 46 89 75 193 5 18 5 18 -301 85
-169 37 -170 37 -171 65 -3 86 -102 165 -193 153 l-46 -5 -27 84 c-14 46 -35
104 -46 128 -43 99 -72 175 -72 193 0 13 -5 16 -16 12 -12 -4 -15 -2 -10 9 4
10 -1 15 -15 15 -11 0 -17 -4 -14 -10 3 -6 -1 -7 -9 -4 -17 7 -108 -46 -184
-106 -60 -48 -132 -141 -174 -225 -37 -73 -32 -67 -53 -59 -22 9 -15 45 24
127 79 166 227 293 409 352 112 36 261 44 384 21z m-7024 -28 c22 -22 13 -38
-21 -38 -18 0 -38 -5 -44 -11 -19 -19 -26 10 -9 36 18 27 54 33 74 13z m8077
-19 c8 -26 0 -36 -29 -36 -19 0 -22 2 -13 12 7 7 14 9 15 4 6 -14 22 -11 22 5
0 7 -9 16 -20 19 -14 4 -20 0 -20 -11 0 -13 -2 -14 -12 -3 -11 10 -9 15 5 26
23 16 44 10 52 -16z m-7871 -81 c15 -71 14 -76 -13 -81 -32 -6 -41 6 -41 61 0
38 2 42 25 42 18 0 26 -6 29 -22z m1201 -108 c-5 -9 36 -6 73 6 7 2 11 0 8 -4
-2 -4 7 -12 20 -19 18 -8 22 -8 17 0 -4 7 1 6 10 -2 9 -7 17 -19 17 -26 0 -7
7 -15 15 -19 23 -8 18 -106 -5 -106 -4 0 -10 20 -13 46 -5 52 -27 73 -73 74
-45 0 -84 -34 -84 -73 0 -35 34 -77 62 -77 24 0 23 -16 -1 -23 -19 -5 -46 7
-70 31 -8 8 -16 9 -20 4 -3 -5 -20 -7 -38 -5 -24 4 -32 11 -36 30 -11 57 35
141 88 163 28 12 37 12 30 0z m-1171 -66 c11 -29 6 -44 -14 -44 -16 0 -20 7
-20 30 0 32 23 42 34 14z m60 -144 c22 -55 20 -65 -11 -79 -30 -14 -37 -8 -53
49 -14 48 -13 58 8 63 35 9 40 6 56 -33z m1446 -46 c0 -29 33 -72 69 -89 20
-9 225 -88 456 -175 231 -87 510 -193 620 -235 110 -42 342 -131 515 -196 173
-66 444 -169 602 -229 159 -61 296 -110 306 -110 27 0 68 48 111 130 36 68 40
71 50 51 10 -18 1 -43 -68 -184 -102 -207 -127 -242 -197 -274 -89 -40 -155
-32 -329 43 -307 133 -710 306 -895 384 -107 45 -229 97 -270 115 -41 18 -129
56 -195 83 -66 27 -209 86 -318 131 -110 46 -215 89 -235 96 -102 37 -249 107
-274 132 -75 71 -77 146 -7 266 44 76 59 92 59 61z m3192 -6 c-7 -7 -12 -8
-12 -2 0 14 12 26 19 19 2 -3 -1 -11 -7 -17z m48 7 c10 -12 10 -15 -4 -15 -9
0 -16 7 -16 15 0 8 2 15 4 15 2 0 9 -7 16 -15z m-3977 -25 c161 -50 305 -205
324 -351 5 -37 4 -39 -20 -39 -14 0 -32 -3 -40 -6 -11 -4 -19 8 -32 45 -32 99
-123 195 -227 241 -48 21 -148 37 -148 24 0 -5 -24 -9 -53 -10 -75 -1 -152
-39 -223 -111 -68 -68 -101 -128 -114 -210 -13 -76 -13 -143 0 -143 6 0 10 -8
11 -17 0 -11 3 -13 6 -6 2 7 20 -19 39 -57 75 -150 220 -228 393 -213 48 5 65
3 72 -8 7 -11 9 -9 9 6 0 16 3 14 15 -9 9 -16 13 -31 10 -34 -3 -3 -5 0 -5 6
0 7 -5 12 -10 12 -6 0 -10 -8 -8 -17 8 -49 -206 -57 -312 -13 -189 80 -298
229 -308 421 -8 148 30 256 124 358 121 131 323 184 497 131z m3889 -12 c-7
-7 -12 -8 -12 -2 0 14 12 26 19 19 2 -3 -1 -11 -7 -17z m76 -43 c-3 -3 -9 2
-12 12 -6 14 -5 15 5 6 7 -7 10 -15 7 -18z m-4055 -199 c20 -2 57 -31 137
-111 l109 -108 -29 -41 c-46 -66 -219 -246 -226 -235 -3 5 -28 28 -56 50 -28
22 -98 84 -155 139 l-105 99 87 93 c110 117 129 131 175 123 19 -3 48 -7 63
-9z m3964 -58 c-3 -7 -5 -2 -5 12 0 14 2 19 5 13 2 -7 2 -19 0 -25z m-3295
-146 c16 -14 15 -18 -24 -61 -22 -25 -52 -70 -66 -100 -21 -45 -24 -64 -20
-121 9 -119 72 -204 183 -246 155 -58 317 25 362 187 17 62 19 64 43 49 20
-13 -1 -110 -38 -169 -34 -56 -119 -127 -169 -140 -53 -15 -149 -13 -204 3
-91 28 -193 115 -225 191 -53 128 -20 315 71 401 37 34 53 35 87 6z m3283 -51
c-3 -6 -11 -11 -16 -11 -5 0 -4 6 3 14 14 16 24 13 13 -3z m-35 -11 c0 -5 -4
-10 -9 -10 -6 0 -13 5 -16 10 -3 6 1 10 9 10 9 0 16 -4 16 -10z m-3022 -137
c25 -15 54 -72 45 -86 -3 -5 -8 -5 -12 -1 -3 5 -13 15 -22 22 -14 11 -16 9
-12 -11 11 -57 -103 -92 -147 -45 -26 28 -26 62 1 99 33 47 94 56 147 22z
m5740 -314 c-20 -13 -32 -10 -19 4 6 8 7 18 3 23 -4 4 1 2 11 -5 14 -11 15
-16 5 -22z m-65 -38 c-3 -12 -14 -18 -36 -19 l-32 0 35 18 c19 11 36 19 37 20
0 0 -1 -8 -4 -19z m-5097 -23 c27 -18 62 -53 79 -76 27 -40 30 -51 30 -120 0
-107 -40 -172 -130 -213 -86 -40 -214 -9 -270 65 -48 64 -67 153 -44 213 37
98 126 163 225 163 53 0 69 -5 110 -32z m-974 11 c76 -16 193 -74 246 -123 81
-74 153 -213 151 -294 0 -31 -3 -25 -19 37 -24 92 -58 151 -124 219 -170 176
-439 201 -648 60 -146 -99 -227 -296 -199 -485 46 -307 348 -504 637 -415 89
27 185 90 233 153 37 49 63 59 69 25 6 -28 -120 -145 -203 -188 -315 -162
-695 24 -770 377 -18 87 -18 113 0 200 34 162 146 315 279 380 116 58 239 77
348 54z m6011 -29 c-13 -5 -23 -14 -23 -19 0 -12 -25 -21 -83 -30 -31 -5 -45
-5 -39 1 6 6 21 11 35 11 14 1 23 4 20 7 -7 7 68 38 92 39 18 0 18 -1 -2 -9z
m-4749 -51 c-3 -5 1 -6 9 -3 18 7 80 -30 69 -41 -4 -5 -1 -5 6 -1 14 8 65 -28
54 -39 -4 -4 3 -4 15 -1 15 5 25 1 35 -13 8 -11 26 -23 40 -26 30 -8 126 -55
112 -55 -5 0 37 -24 94 -52 57 -27 102 -52 100 -53 -12 -13 -260 90 -442 183
-90 46 -111 61 -122 89 -18 43 -18 44 11 31 13 -6 22 -15 19 -19z m-1212 -92
c66 -30 152 -106 177 -157 26 -52 40 -118 37 -180 -4 -66 -11 -94 -39 -138
-15 -26 -22 -31 -29 -20 -6 9 -7 5 -3 -11 5 -16 4 -21 -4 -17 -7 5 -9 1 -5 -9
9 -22 -51 -78 -112 -106 -143 -65 -308 -40 -421 64 -57 53 -84 127 -86 232 -1
119 28 196 108 283 83 92 250 118 377 59z m2293 -102 c28 -12 93 -40 145 -61
89 -37 101 -39 200 -39 121 0 162 15 238 88 23 23 42 37 42 32 0 -6 5 -3 10 5
16 26 12 -31 -5 -64 -8 -15 -15 -35 -15 -42 0 -27 21 -14 37 24 11 25 18 32
20 20 2 -9 -5 -34 -16 -55 -34 -67 -89 -121 -156 -154 -60 -29 -69 -31 -154
-28 l-91 4 -336 168 c-184 93 -333 171 -330 174 3 3 22 -4 42 -16 27 -16 35
-18 31 -7 -4 10 -1 13 9 9 7 -3 14 -9 14 -14 0 -4 10 -13 21 -20 15 -8 19 -8
15 0 -4 6 -2 11 5 11 6 0 -6 14 -27 31 -52 41 -53 42 -23 30 24 -8 26 -7 24
13 -3 22 3 21 124 -31 69 -30 149 -65 176 -78z m2460 -27 c-42 -39 -102 -92
-133 -116 -31 -24 -61 -48 -67 -53 -10 -10 265 -4 325 7 22 3 19 -1 -20 -35
-250 -220 -653 -464 -975 -591 -259 -103 -493 -168 -745 -209 -157 -25 -140
-26 -140 12 0 40 -25 128 -50 177 -10 19 -43 62 -73 96 -69 75 -153 119 -257
135 -141 22 -287 -34 -391 -149 -62 -69 -106 -156 -115 -228 -7 -63 -6 -63
-149 -38 -428 73 -856 240 -1235 479 l-44 28 55 17 c70 22 114 45 166 87 36
29 41 37 33 53 -13 25 -13 27 6 34 8 3 12 2 9 -4 -12 -19 15 -10 33 11 9 11
40 40 69 65 l52 44 133 -64 c296 -144 569 -227 943 -287 109 -18 599 -18 720
-1 379 56 665 142 958 288 118 59 342 188 351 202 2 4 48 9 102 10 144 3 274
39 313 86 11 13 34 16 108 16 l94 0 -76 -72z m-1175 -13 c0 -15 -166 -80 -252
-99 -23 -5 -28 -3 -28 13 0 15 10 23 38 30 225 62 242 66 242 56z m1868 -339
c-7 -8 -15 -12 -17 -11 -5 6 10 25 20 25 5 0 4 -6 -3 -14z m70 -112 c-4 -24
-24 -29 -32 -8 -8 20 13 49 27 35 5 -5 7 -17 5 -27z m-275 -46 c-4 -22 -4 -22
8 -3 6 11 13 22 15 24 2 2 10 -4 19 -13 15 -15 15 -16 -3 -16 -11 0 -22 -5
-24 -12 -2 -6 -10 -8 -16 -4 -14 8 -16 46 -3 46 5 0 7 -10 4 -22z m-416 -73
c0 -8 -4 -12 -9 -9 -4 3 -8 9 -8 15 0 5 4 9 8 9 5 0 9 -7 9 -15z m-4374 -42
c34 -25 63 -47 65 -48 6 -4 -11 -35 -19 -35 -15 0 -129 93 -129 105 0 11 9 25
17 25 3 0 32 -21 66 -47z m4282 -30 c0 -16 -95 -83 -117 -83 -33 0 -17 35 30
67 46 32 87 39 87 16z m-2043 -72 c125 -59 204 -211 177 -340 -31 -156 -160
-261 -320 -261 -123 0 -257 98 -293 214 -24 77 -18 163 17 232 34 66 120 145
183 166 65 23 174 18 236 -11z m-2016 -52 c37 -25 43 -33 33 -45 -16 -20 -25
-18 -74 16 -29 20 -42 35 -39 45 9 23 31 18 80 -16z m3854 -20 c0 -10 -116
-69 -124 -62 -17 17 -1 41 47 69 46 28 53 30 65 16 6 -9 12 -19 12 -23z m445
-21 c20 -23 25 -38 20 -57 -14 -63 -101 -94 -140 -51 -29 32 -25 88 9 116 39
34 78 31 111 -8z m-4107 -66 c45 -24 50 -33 28 -52 -12 -9 -25 -6 -63 16 -26
15 -50 29 -51 30 -2 1 -1 12 3 23 7 22 11 21 83 -17z m3452 4 c0 -2 3 -11 6
-19 6 -17 -90 -71 -112 -63 -27 11 -13 36 34 60 44 23 72 32 72 22z m280 -111
c-19 -19 -38 -35 -42 -35 -5 0 -25 12 -44 28 l-34 27 32 6 c18 3 53 6 77 7
l44 1 -33 -34z m-3525 3 c43 -21 56 -40 35 -53 -14 -9 -110 43 -110 60 0 21
22 19 75 -7z m3033 -14 c2 -15 -10 -24 -57 -42 -60 -23 -81 -23 -81 2 0 14
107 67 125 62 6 -1 11 -11 13 -22z m302 -12 c0 -10 -70 -122 -76 -122 -5 0 4
82 13 113 3 11 14 17 34 17 16 0 29 -4 29 -8z m-3169 -80 c-7 -2 -18 1 -23 6
-8 8 -4 9 13 5 13 -4 18 -8 10 -11z m2643 3 c3 -9 0 -18 -7 -20 -94 -34 -96
-35 -106 -17 -8 14 -2 20 37 34 60 21 69 21 76 3z m-2568 -26 c16 -18 16 -19
1 -13 -9 3 -17 10 -17 15 0 4 -6 6 -14 3 -8 -3 -16 -1 -19 3 -11 18 32 11 49
-8z m207 -43 c72 -31 35 -57 -43 -31 -38 13 -50 21 -50 37 0 17 5 20 28 15 15
-3 44 -13 65 -21z m2157 15 c0 -5 2 -16 5 -23 4 -10 -10 -19 -48 -31 -70 -22
-77 -21 -77 6 0 17 10 25 48 38 58 20 72 22 72 10z m-2812 -22 c4 -19 -19 -31
-38 -19 -18 11 -4 42 17 38 10 -2 19 -10 21 -19z m860 -49 c40 -10 55 -31 32
-45 -15 -9 -110 26 -110 40 0 16 10 24 23 20 7 -2 31 -9 55 -15z m1742 -10 c0
-13 -9 -22 -27 -26 -16 -3 -42 -10 -60 -14 -27 -7 -33 -5 -39 12 -8 25 -9 24
56 41 62 16 70 14 70 -13z m-222 -47 c3 -18 -4 -22 -40 -28 -24 -3 -56 -9 -71
-12 -25 -4 -28 -2 -25 18 2 20 12 26 58 35 67 14 74 13 78 -13z m-1267 7 c12
0 19 -7 19 -20 0 -23 -20 -25 -86 -9 -28 7 -44 17 -44 27 0 12 9 14 46 8 26
-3 55 -6 65 -6z m-846 -30 c0 -18 -6 -26 -21 -28 -26 -4 -40 24 -23 45 18 21
44 11 44 -17z m440 -126 c19 -8 19 -24 0 -24 -8 0 -22 -11 -31 -25 l-16 -25
-20 25 c-11 14 -26 25 -34 25 -21 0 -17 9 16 37 17 13 30 32 30 41 0 10 8 4
20 -16 11 -18 27 -35 35 -38z m2052 0 c8 -20 -8 -36 -26 -25 -15 10 -8 41 9
41 6 0 13 -7 17 -16z m-472 -39 c0 -23 -5 -30 -19 -30 -24 0 -41 27 -33 49 4
11 15 16 29 14 18 -2 23 -9 23 -33z"/>
<path d="M3580 8530 c14 -4 18 -8 9 -9 -12 -1 -15 -8 -11 -26 6 -35 18 -39 42
-15 23 23 27 45 6 37 -8 -3 -17 1 -20 9 -3 8 -16 14 -28 13 -22 -1 -22 -1 2
-9z"/>
<path d="M3483 8500 c-46 -27 -41 -34 5 -8 46 27 48 28 36 28 -5 0 -24 -9 -41
-20z"/>
<path d="M3750 8440 c0 -18 2 -19 20 -8 11 7 20 16 20 20 0 5 -9 8 -20 8 -13
0 -20 -7 -20 -20z"/>
<path d="M2318 7553 c7 -3 16 -2 19 1 4 3 -2 6 -13 5 -11 0 -14 -3 -6 -6z"/>
<path d="M2335 7540 c-13 -5 -14 -9 -5 -9 8 0 24 4 35 9 13 5 14 9 5 9 -8 0
-24 -4 -35 -9z"/>
<path d="M2488 7533 c7 -3 16 -2 19 1 4 3 -2 6 -13 5 -11 0 -14 -3 -6 -6z"/>
<path d="M6964 8121 c4 -7 2 -18 -4 -26 -7 -8 -10 -15 -6 -15 4 0 0 -10 -9
-23 -13 -20 -19 -87 -25 -274 0 -15 -103 -17 -352 -6 l-157 6 5 31 c4 30 4 30
-8 -4 -12 -35 -12 -34 -18 40 -4 41 -13 94 -20 118 -15 48 -45 74 -53 44 -3
-9 -5 -2 -6 16 0 17 -6 32 -12 32 -6 0 -8 7 -5 16 3 8 2 12 -4 9 -6 -4 -10
-88 -10 -216 l0 -209 357 2 357 3 -3 145 c-6 271 -9 314 -21 318 -8 3 -10 0
-6 -7z"/>
<path d="M6673 8002 l-203 -2 0 -95 0 -95 211 0 210 0 -7 98 c-4 53 -7 97 -8
97 0 0 -92 -1 -203 -3z m137 -71 c0 -39 -9 -41 -150 -41 -77 0 -141 4 -144 9
-4 5 -3 16 0 25 5 14 28 16 150 16 81 0 144 -4 144 -9z"/>
<path d="M6420 7898 c0 -9 5 -20 10 -23 13 -8 13 5 0 25 -8 13 -10 13 -10 -2z"/>
<path d="M8018 7854 c-16 -8 -28 -16 -28 -18 0 -2 22 -4 48 -4 50 -1 96 -14
106 -31 3 -5 -11 -22 -31 -38 -52 -41 -66 -48 -61 -33 4 12 -67 90 -82 90 -17
0 -40 -32 -40 -56 0 -13 -4 -24 -10 -24 -11 0 -14 -59 -4 -84 3 -9 15 -16 25
-16 21 0 24 -11 8 -27 -15 -15 56 -71 99 -79 48 -9 118 22 156 69 27 34 31 47
31 96 -1 41 -7 67 -24 94 -25 40 -74 72 -97 63 -9 -3 -12 -1 -9 4 10 16 -56
11 -87 -6z"/>
<path d="M2750 7807 c0 -2 15 -16 33 -33 l32 -29 -29 33 c-28 30 -36 37 -36
29z"/>
<path d="M2879 7678 c7 -9 9 -23 5 -30 -6 -10 -4 -11 7 0 11 10 10 15 -6 30
-17 15 -18 15 -6 0z"/>
<path d="M2931 7617 c2 -1 13 -9 24 -17 19 -14 19 -14 6 3 -7 9 -18 17 -24 17
-6 0 -8 -1 -6 -3z"/>
<path d="M2990 7556 c0 -2 8 -10 18 -17 15 -13 16 -12 3 4 -13 16 -21 21 -21
13z"/>
<path d="M3039 7518 c7 -9 9 -23 5 -29 -4 -7 -3 -9 3 -6 12 8 46 -27 36 -36
-3 -4 -1 -7 5 -7 20 0 13 15 -25 56 -20 21 -31 31 -24 22z"/>
<path d="M2910 7341 c0 -11 4 -23 10 -26 6 -4 9 5 8 19 -3 30 -18 35 -18 7z"/>
<path d="M2950 7310 c0 -6 7 -10 15 -10 8 0 15 2 15 4 0 2 -7 6 -15 10 -8 3
-15 1 -15 -4z"/>
<path d="M4025 6810 c36 -45 55 -62 54 -48 0 7 -17 26 -37 43 -32 26 -34 26
-17 5z"/>
<path d="M4035 6750 c3 -5 8 -10 11 -10 2 0 4 5 4 10 0 6 -5 10 -11 10 -5 0
-7 -4 -4 -10z"/>
<path d="M4000 6743 c0 -6 6 -18 13 -25 7 -7 16 -21 20 -31 7 -20 29 -19 33 1
1 7 0 8 -3 2 -7 -14 -26 -12 -21 3 3 6 -5 23 -18 37 -13 13 -24 19 -24 13z"/>
<path d="M4086 6728 c3 -4 10 -6 15 -3 5 4 12 -1 15 -10 4 -9 18 -21 31 -26
15 -5 23 -15 21 -26 -2 -10 2 -18 9 -18 7 0 19 -9 27 -20 8 -11 17 -17 20 -14
10 10 -102 124 -124 125 -10 1 -17 -3 -14 -8z"/>
<path d="M4066 6662 c-3 -4 4 -9 15 -9 23 -2 25 3 4 10 -8 4 -16 3 -19 -1z"/>
<path d="M4113 6629 c9 -6 22 -7 27 -4 12 7 12 3 4 -19 -5 -13 -9 -14 -20 -5
-9 7 -14 8 -14 1 0 -17 30 -23 36 -7 4 8 10 13 14 10 5 -3 11 -1 14 4 7 10
-17 22 -54 27 -21 2 -22 1 -7 -7z"/>
<path d="M4195 6590 c3 -5 8 -10 11 -10 2 0 4 5 4 10 0 6 -5 10 -11 10 -5 0
-7 -4 -4 -10z"/>
<path d="M4169 6567 c6 -8 8 -17 5 -20 -4 -3 1 -13 9 -22 20 -20 33 -20 17 0
-7 9 -10 18 -7 22 8 8 -12 33 -25 33 -7 0 -6 -5 1 -13z"/>
<path d="M3958 7453 c7 -3 16 -2 19 1 4 3 -2 6 -13 5 -11 0 -14 -3 -6 -6z"/>
<path d="M5301 6894 c0 -11 3 -14 6 -6 3 7 2 16 -1 19 -3 4 -6 -2 -5 -13z"/>
<path d="M5055 6564 c17 -17 35 -26 41 -22 6 4 14 5 17 1 4 -3 7 -1 7 6 0 6
-6 11 -12 9 -7 -1 -29 6 -48 16 l-35 19 30 -29z"/>
<path d="M2284 6598 c3 -13 5 -25 5 -28 1 -3 5 1 10 9 10 16 4 41 -10 41 -5 0
-7 -10 -5 -22z"/>
<path d="M3595 6990 c-3 -6 1 -7 9 -4 18 7 21 14 7 14 -6 0 -13 -4 -16 -10z"/>
<path d="M7241 6650 l-24 -20 27 -40 c29 -44 54 -50 79 -22 23 25 21 35 -9 71
-30 36 -40 37 -73 11z"/>
<path d="M7337 6532 c-34 -21 -34 -34 0 -88 34 -53 46 -58 83 -39 33 17 32 27
-12 92 -36 54 -38 55 -71 35z"/>
<path d="M7418 6369 c-10 -5 -18 -17 -18 -26 0 -24 68 -163 79 -163 21 0 61
24 61 37 0 7 -16 47 -36 88 -37 76 -50 86 -86 64z"/>
<path d="M7505 5987 c-18 -15 -28 -36 -32 -64 -5 -39 -2 -46 30 -78 40 -40 59
-43 105 -15 42 26 56 62 42 106 -23 69 -95 95 -145 51z"/>
<path d="M7760 5439 c0 -11 5 -17 10 -14 6 3 10 13 10 21 0 8 -4 14 -10 14 -5
0 -10 -9 -10 -21z"/>
<path d="M7810 5431 c0 -6 4 -13 10 -16 6 -3 7 1 4 9 -7 18 -14 21 -14 7z"/>
<path d="M7722 5385 c0 -16 2 -22 5 -12 2 9 2 23 0 30 -3 6 -5 -1 -5 -18z"/>
<path d="M7818 5373 c7 -3 16 -2 19 1 4 3 -2 6 -13 5 -11 0 -14 -3 -6 -6z"/>
<path d="M8738 6885 c-13 -29 3 -55 33 -55 20 0 35 39 25 65 -9 24 -45 18 -58
-10z m35 -10 c4 -8 2 -17 -3 -20 -6 -4 -10 3 -10 14 0 25 6 27 13 6z"/>
<path d="M3123 6407 c1 -24 4 -32 9 -23 4 8 4 25 -1 38 -8 20 -9 18 -8 -15z"/>
<path d="M3140 6430 c0 -5 5 -10 11 -10 5 0 7 5 4 10 -3 6 -8 10 -11 10 -2 0
-4 -4 -4 -10z"/>
<path d="M5897 6647 c-88 -83 -34 -227 85 -227 54 0 94 26 118 75 26 54 25 84
-3 126 -29 43 -60 59 -119 59 -39 0 -52 -5 -81 -33z"/>
<path d="M3727 6512 c-15 -16 -15 -18 2 -18 11 0 17 6 14 13 -6 15 13 18 20 3
3 -6 4 -5 3 2 -4 19 -21 20 -39 0z"/>
<path d="M3650 6426 c0 -2 8 -10 18 -17 15 -13 16 -12 3 4 -13 16 -21 21 -21
13z"/>
<path d="M3559 6333 c-13 -16 -12 -17 4 -4 9 7 17 15 17 17 0 8 -8 3 -21 -13z"/>
<path d="M4020 6076 c0 -2 7 -7 16 -10 8 -3 12 -2 9 4 -6 10 -25 14 -25 6z"/>
<path d="M4030 6040 c0 -5 5 -10 11 -10 5 0 7 5 4 10 -3 6 -8 10 -11 10 -2 0
-4 -4 -4 -10z"/>
<path d="M3246 6021 c-14 -15 -15 -21 -4 -27 7 -4 10 -3 5 1 -4 5 0 17 10 27
9 10 14 18 11 18 -3 0 -13 -9 -22 -19z"/>
<path d="M2352 6685 c-25 -29 -29 -43 -6 -25 15 13 38 50 31 50 -2 0 -13 -11
-25 -25z"/>
<path d="M2311 6654 c0 -11 3 -14 6 -6 3 7 2 16 -1 19 -3 4 -6 -2 -5 -13z"/>
<path d="M5596 5501 l-39 -78 51 -67 c28 -36 59 -82 68 -103 10 -20 20 -31 22
-24 3 8 -1 17 -7 21 -7 4 -13 16 -14 28 0 11 -4 19 -8 16 -4 -2 -10 3 -13 12
-8 22 -7 56 2 51 14 -10 0 181 -16 210 -5 9 -21 -14 -46 -66z"/>
<path d="M6327 5377 c-3 -8 1 -14 8 -14 7 0 11 6 8 14 -3 7 -6 13 -8 13 -2 0
-5 -6 -8 -13z"/>
<path d="M6311 5334 c0 -11 3 -14 6 -6 3 7 2 16 -1 19 -3 4 -6 -2 -5 -13z"/>
<path d="M6286 5295 c-3 -8 -1 -15 4 -15 6 0 10 7 10 15 0 8 -2 15 -4 15 -2 0
-6 -7 -10 -15z"/>
<path d="M5713 5282 c-9 -6 -9 -17 1 -46 l13 -39 5 39 c6 42 0 57 -19 46z"/>
<path d="M6110 5282 c0 -7 -5 -11 -11 -9 -6 1 -14 -5 -16 -13 -4 -13 -3 -13 6
0 10 13 11 13 11 0 1 -11 3 -11 11 3 6 10 8 21 5 24 -3 4 -6 1 -6 -5z"/>
<path d="M6360 5271 c0 -6 4 -13 10 -16 6 -3 7 1 4 9 -7 18 -14 21 -14 7z"/>
<path d="M4695 5251 c-3 -5 -2 -12 3 -15 5 -3 9 1 9 9 0 17 -3 19 -12 6z"/>
<path d="M5308 5241 c14 -12 20 -25 16 -32 -4 -8 -3 -9 5 -5 6 4 20 2 29 -5 9
-8 6 -1 -8 15 -14 15 -34 32 -45 37 -16 8 -16 7 3 -10z"/>
<path d="M4665 5219 c-4 -6 -5 -12 -2 -15 2 -3 7 2 10 11 7 17 1 20 -8 4z"/>
<path d="M4616 5158 c-9 -12 -16 -28 -16 -35 0 -7 -4 -13 -10 -13 -17 0 -50
-130 -50 -199 0 -270 227 -480 495 -458 240 20 425 220 425 460 0 78 -19 160
-45 192 -16 20 -16 20 -12 -3 3 -12 2 -20 -3 -17 -4 3 -10 -5 -14 -18 -5 -18
-8 -20 -16 -7 -5 8 -10 25 -10 38 0 17 -6 22 -24 22 -13 0 -27 -7 -30 -16 -4
-10 -12 -14 -22 -10 -9 4 -23 1 -30 -5 -8 -6 -20 -9 -28 -6 -7 3 -19 0 -26 -6
-10 -9 -11 -9 -6 1 4 6 2 12 -3 12 -6 0 -11 -7 -11 -16 0 -11 -6 -15 -19 -11
-13 3 -18 0 -15 -8 3 -7 13 -12 22 -11 15 1 17 -12 20 -86 3 -107 -11 -145
-68 -187 -89 -64 -216 -47 -275 37 -27 39 -30 51 -28 110 2 81 6 121 13 117 3
-2 14 9 24 24 l20 26 -22 -19 c-22 -19 -22 -19 -22 2 0 12 8 25 17 31 10 5 15
13 10 17 -4 4 -15 0 -25 -9 -25 -23 -34 -21 -30 5 2 17 -4 23 -32 31 -27 7
-36 5 -46 -7 -16 -23 -66 -20 -82 4 -7 12 -10 25 -7 30 12 20 -4 9 -19 -12z"/>
<path d="M5383 5148 c0 -8 -3 -26 -7 -42 -4 -16 -3 -25 2 -22 14 9 24 58 14
68 -5 5 -9 3 -9 -4z"/>
<path d="M4168 5123 c7 -3 16 -2 19 1 4 3 -2 6 -13 5 -11 0 -14 -3 -6 -6z"/>
<path d="M4908 5108 c-16 -5 -28 -14 -28 -20 0 -7 4 -7 13 0 6 6 28 15 47 20
19 6 26 10 15 10 -11 0 -32 -4 -47 -10z"/>
<path d="M4000 5030 c0 -5 5 -10 10 -10 6 0 10 5 10 10 0 6 -4 10 -10 10 -5 0
-10 -4 -10 -10z"/>
<path d="M5171 5024 c0 -11 3 -14 6 -6 3 7 2 16 -1 19 -3 4 -6 -2 -5 -13z"/>
<path d="M5050 5016 c0 -2 7 -7 16 -10 8 -3 12 -2 9 4 -6 10 -25 14 -25 6z"/>
<path d="M4880 4915 c0 -8 5 -17 10 -20 6 -3 10 -15 10 -25 0 -10 5 -22 11
-26 8 -4 9 1 4 17 l-7 24 21 -22 c12 -13 25 -23 28 -23 4 0 -3 10 -14 23 -12
12 -23 31 -25 41 -3 22 -38 31 -38 11z"/>
<path d="M4935 4820 c3 -5 8 -10 11 -10 2 0 4 5 4 10 0 6 -5 10 -11 10 -5 0
-7 -4 -4 -10z"/>
<path d="M2490 6253 c-67 -48 -78 -64 -61 -95 21 -40 42 -48 86 -32 22 7 46
21 53 31 14 20 9 71 -12 111 l-12 23 -54 -38z"/>
<path d="M1082 4935 c0 -16 2 -22 5 -12 2 9 2 23 0 30 -3 6 -5 -1 -5 -18z"/>
<path d="M2447 5723 c-39 -44 -9 -113 49 -113 32 0 67 47 59 80 -9 34 -16 40
-56 46 -26 4 -38 1 -52 -13z"/>
<path d="M1587 5024 c-4 -4 -7 -18 -7 -31 0 -19 5 -23 31 -23 27 0 30 3 27 28
-3 26 -34 43 -51 26z"/>
<path d="M2784 5196 c-79 -35 -114 -138 -75 -218 28 -57 63 -81 126 -86 92 -8
171 51 182 137 7 50 -26 122 -69 153 -39 27 -120 34 -164 14z"/>
<path d="M8857 5225 c-22 -7 -50 -23 -63 -36 -33 -31 -58 -101 -50 -141 29
-154 215 -190 303 -59 56 83 7 205 -96 240 -42 14 -47 13 -94 -4z"/>
<path d="M8405 4599 c-4 -6 -3 -15 3 -21 6 -6 11 -4 15 6 7 18 -9 31 -18 15z"/>
<path d="M7315 4500 c-3 -5 -2 -10 4 -10 5 0 13 5 16 10 3 6 2 10 -4 10 -5 0
-13 -4 -16 -10z"/>
<path d="M1611 4535 c2 -5 -2 -20 -9 -32 -10 -18 -9 -21 6 -18 9 2 20 4 24 4
10 1 3 30 -11 44 -7 6 -11 8 -10 2z m12 -30 c-3 -9 -8 -14 -10 -11 -3 3 -2 9
2 15 9 16 15 13 8 -4z"/>
<path d="M1504 4499 c-2 -4 0 -10 6 -14 11 -7 30 2 30 14 0 10 -29 10 -36 0z"/>
<path d="M1683 4450 c-1 -10 9 -22 24 -29 31 -14 43 -7 14 9 -12 6 -19 15 -16
19 3 5 -1 11 -8 14 -7 3 -13 -3 -14 -13z"/>
<path d="M2457 4472 c-34 -37 -15 -95 34 -107 51 -12 91 72 51 108 -24 22 -65
21 -85 -1z"/>
<path d="M2534 4359 c-19 -22 -19 -22 4 -8 12 8 22 17 22 21 0 12 -6 9 -26
-13z"/>
<path d="M6660 4436 c0 -85 1 -86 86 -86 l74 0 0 70 0 70 -80 0 -80 0 0 -54z"/>
<path d="M6423 4439 c-35 -11 -63 -26 -63 -33 0 -12 30 -107 36 -114 6 -8 144
23 144 33 -2 45 -28 130 -40 132 -8 1 -43 -7 -77 -18z"/>
<path d="M6042 4188 c-7 -7 -12 -15 -12 -19 0 -11 80 -72 87 -66 5 6 -48 96
-57 97 -4 0 -11 -5 -18 -12z"/>
<path d="M5896 4044 c-4 -9 -5 -17 -4 -18 2 -1 21 -15 43 -32 63 -48 68 -50
60 -25 -6 21 -73 90 -86 91 -4 0 -10 -7 -13 -16z"/>
<path d="M5799 3869 c-18 -26 -19 -33 -8 -40 8 -5 21 -9 29 -9 9 0 25 -7 36
-15 12 -8 24 -11 28 -8 14 14 4 38 -28 69 l-35 34 -22 -31z"/>
<path d="M5716 3654 c-8 -22 -8 -22 47 -29 58 -8 62 7 7 29 -49 20 -46 20 -54
0z"/>
<path d="M5914 2929 c-3 -6 -1 -16 5 -22 8 -8 11 -5 11 11 0 24 -5 28 -16 11z"/>
<path d="M5971 2924 c0 -11 3 -14 6 -6 3 7 2 16 -1 19 -3 4 -6 -2 -5 -13z"/>
<path d="M3833 3250 c-12 -5 -29 -23 -38 -40 -35 -67 15 -137 90 -127 76 11
110 88 63 142 -25 28 -79 40 -115 25z"/>
<path d="M4665 2897 c-52 -44 -32 -128 32 -140 38 -7 77 10 96 42 23 38 21 55
-5 86 -34 38 -87 44 -123 12z"/>
<path d="M4902 2843 c-29 -6 -55 -46 -55 -85 0 -38 42 -78 82 -78 59 0 107 71
81 120 -9 18 -71 54 -82 49 -2 -1 -13 -4 -26 -6z"/>
<path d="M1918 3430 l-36 -41 -29 36 c-19 23 -35 33 -44 29 -8 -4 -36 -31 -63
-61 l-50 -54 95 -89 94 -88 95 94 95 94 -61 61 -61 61 -35 -42z m84 -62 c2 -6
-16 -33 -41 -58 -82 -82 -74 -81 -142 -14 -62 61 -70 78 -42 88 11 5 30 -7 60
-36 l44 -43 42 46 c31 34 46 43 59 37 9 -4 18 -13 20 -20z"/>
<path d="M2090 2371 c0 -6 4 -13 10 -16 6 -3 7 1 4 9 -7 18 -14 21 -14 7z"/>
<path d="M2114 2326 c-3 -14 -13 -27 -22 -29 -10 -3 -3 -5 14 -6 21 -1 34 5
38 15 9 24 7 28 -9 14 -18 -15 -20 1 -3 18 9 9 9 12 0 12 -6 0 -14 -11 -18
-24z"/>
<path d="M2050 2225 c0 -23 20 -109 29 -123 7 -12 14 -11 38 2 28 14 30 19 32
76 1 38 -3 60 -10 60 -7 0 -10 -12 -7 -29 2 -17 1 -28 -4 -25 -4 3 -8 16 -8
30 0 21 -5 24 -35 24 -24 0 -35 -5 -35 -15z m30 1 c0 -3 -4 -8 -10 -11 -5 -3
-10 -1 -10 4 0 6 5 11 10 11 6 0 10 -2 10 -4z"/>
<path d="M2526 2223 c-3 -8 -5 -33 -5 -56 1 -23 4 -33 6 -23 4 15 7 16 14 5 6
-9 7 -4 3 15 -6 25 -4 28 10 23 22 -9 21 15 -3 35 -17 14 -20 15 -25 1z"/>
<path d="M2191 2164 c0 -11 3 -14 6 -6 3 7 2 16 -1 19 -3 4 -6 -2 -5 -13z"/>
<path d="M2238 2113 c-10 -2 -18 -11 -18 -19 0 -25 38 -92 62 -108 39 -27 49
-21 43 27 -15 110 -14 107 -43 106 -15 -1 -35 -3 -44 -6z"/>
<path d="M2350 2050 c0 -73 8 -84 38 -51 36 41 42 51 42 76 0 14 -6 25 -12 26
-7 1 -2 5 12 9 20 6 14 8 -27 9 l-53 1 0 -70z m34 34 c3 -8 2 -12 -4 -9 -6 3
-10 10 -10 16 0 14 7 11 14 -7z"/>
<path d="M2132 2078 c-7 -7 -12 -15 -12 -19 0 -10 62 -55 88 -63 l23 -8 -27
51 c-28 51 -49 62 -72 39z"/>
<path d="M2486 2068 c-30 -42 -18 -73 20 -56 29 13 40 44 24 63 -17 20 -26 19
-44 -7z"/>
<path d="M2445 2000 c-3 -5 1 -10 9 -10 9 0 16 5 16 10 0 6 -4 10 -9 10 -6 0
-13 -4 -16 -10z"/>
<path d="M4490 2606 c0 -2 7 -7 16 -10 8 -3 12 -2 9 4 -6 10 -25 14 -25 6z"/>
<path d="M4266 1693 c-6 -14 -5 -15 5 -6 7 7 10 15 7 18 -3 3 -9 -2 -12 -12z"/>
<path d="M4972 1564 c-71 -49 -68 -170 5 -215 27 -17 45 -20 86 -16 42 4 56
10 84 41 26 28 33 44 33 76 0 52 -23 96 -60 115 -38 20 -119 19 -148 -1z m120
-71 c33 -30 18 -84 -28 -97 -27 -8 -74 28 -74 56 0 50 64 76 102 41z"/>
</g>
</svg>
