<?xml version="1.0" standalone="no"?>
<!DOCTYPE svg PUBLIC "-//W3C//DTD SVG 20010904//EN"
 "http://www.w3.org/TR/2001/REC-SVG-20010904/DTD/svg10.dtd">
<svg version="1.0" xmlns="http://www.w3.org/2000/svg"
 width="400.000000pt" height="200.000000pt" viewBox="0 0 400.000000 200.000000"
 preserveAspectRatio="xMidYMid meet">
<metadata>
Created by potrace 1.16, written by Peter Selinger 2001-2019
</metadata>
<g transform="translate(0.000000,200.000000) scale(0.100000,-0.100000)"
fill="#000000" stroke="none">
<path d="M2173 1608 c5 -276 16 -369 53 -458 17 -39 10 -92 -11 -84 -9 4 -20
-14 -34 -53 -34 -91 -35 -92 -41 -24 -6 76 -26 93 -36 32 -4 -24 -12 -41 -20
-41 -16 0 -21 -34 -13 -85 4 -22 6 -41 5 -43 -2 -1 -16 32 -31 74 -44 121 -69
113 -81 -25 l-7 -86 -42 147 c-39 137 -42 157 -47 306 -6 165 -15 202 -48 202
-37 0 -38 -89 -3 -225 12 -46 14 -94 10 -210 -3 -82 -8 -160 -12 -172 -6 -20
-10 -17 -32 27 -49 99 -177 182 -280 183 -94 0 -150 -41 -200 -148 -25 -54
-28 -70 -28 -170 0 -137 13 -166 97 -210 31 -16 60 -26 65 -22 10 11 -17 27
-45 27 -59 0 -95 83 -94 220 0 170 85 280 217 280 43 0 143 -51 189 -95 21
-21 51 -65 66 -97 l28 -59 -20 -59 c-11 -33 -49 -107 -84 -165 -72 -120 -97
-183 -119 -310 -19 -110 -19 -139 0 -155 23 -19 40 -7 94 70 147 209 210 421
167 562 -12 40 -11 57 8 157 l21 112 28 -137 c40 -191 64 -266 85 -262 21 4
31 47 40 183 l7 110 27 -46 c25 -43 54 -67 66 -55 2 3 7 25 9 50 4 34 12 49
34 65 16 12 38 39 49 61 11 22 25 40 30 40 5 0 11 9 15 20 4 13 14 19 28 17
20 -2 22 3 25 46 2 29 7 45 13 41 11 -7 49 23 49 39 0 5 7 15 16 21 15 11 42
153 45 231 0 17 7 -4 14 -45 18 -96 35 -159 47 -166 31 -19 47 55 28 131 l-8
30 -2 -35 c-1 -19 -6 -46 -10 -60 -7 -22 -8 -23 -9 -4 -2 41 -41 482 -47 538
-8 63 -19 72 -28 24 -10 -55 -36 -346 -43 -480 -4 -91 -10 -128 -19 -132 -9
-3 -18 9 -25 35 -10 33 -36 71 -40 58 0 -2 -6 -47 -13 -99 l-12 -95 -7 80
c-41 476 -64 665 -80 665 -6 0 -8 -96 -4 -272z m50 -318 c4 -36 3 -46 -2 -28
-5 14 -11 59 -14 100 -6 80 5 29 16 -72z m-401 -647 c0 -126 -52 -262 -169
-442 -35 -55 -58 -80 -64 -74 -19 19 33 269 71 342 10 20 43 76 73 124 31 48
59 102 62 118 12 54 28 15 27 -68z"/>
<path d="M2722 1473 c-48 -23 -131 -101 -147 -137 -8 -17 -13 -22 -12 -12 1
10 -4 21 -10 23 -18 7 -16 -22 3 -38 14 -11 22 -5 66 44 55 63 121 107 161
107 16 0 33 -10 46 -26 44 -56 19 -303 -38 -376 -12 -15 -49 -34 -98 -51 -114
-40 -150 -64 -216 -142 -78 -92 -198 -273 -237 -357 -58 -124 -65 -259 -14
-278 68 -26 150 -1 188 57 23 35 61 135 86 228 15 53 116 145 159 145 39 0 49
-16 53 -85 4 -76 28 -90 28 -16 0 63 -21 117 -49 126 -32 10 -92 -12 -136 -49
l-40 -34 -11 36 -11 37 -7 -50 c-12 -78 -65 -274 -86 -314 -22 -44 -55 -61
-115 -61 -64 0 -78 18 -69 89 10 78 36 151 90 245 125 218 215 314 351 378
168 79 193 107 214 239 11 73 6 190 -11 234 -8 21 -64 55 -92 55 -7 0 -28 -8
-46 -17z"/>
</g>
</svg>
