<?xml version="1.0" standalone="no"?>
<!DOCTYPE svg PUBLIC "-//W3C//DTD SVG 20010904//EN"
 "http://www.w3.org/TR/2001/REC-SVG-20010904/DTD/svg10.dtd">
<svg version="1.0" xmlns="http://www.w3.org/2000/svg"
 width="1200.000000pt" height="672.000000pt" viewBox="0 0 1200.000000 672.000000"
 preserveAspectRatio="xMidYMid meet">
<metadata>
Created by potrace 1.16, written by Peter Selinger 2001-2019
</metadata>
<g transform="translate(0.000000,672.000000) scale(0.100000,-0.100000)"
fill="#000000" stroke="none">
<path d="M9170 6714 c-173 -9 -635 -54 -742 -72 -24 -4 -41 -12 -38 -17 3 -6
12 -9 20 -8 8 1 112 7 230 13 1098 52 1940 -101 2460 -446 173 -115 455 -381
553 -520 260 -372 273 -774 43 -1259 -162 -341 -468 -727 -864 -1088 -400
-366 -971 -767 -1612 -1132 -85 -48 -164 -95 -175 -105 -11 -9 -51 -33 -90
-52 -38 -20 -173 -87 -300 -151 -439 -221 -1078 -516 -1280 -592 -704 -264
-1599 -510 -2330 -639 -539 -96 -850 -134 -1435 -177 -218 -16 -750 -17 -915
-1 -611 59 -871 101 -1225 198 -624 173 -1039 460 -1210 836 -136 301 -134
668 6 1088 69 207 215 517 349 738 37 62 64 116 60 120 -9 9 -52 -41 -167
-193 -313 -415 -498 -920 -502 -1370 -1 -155 6 -204 51 -368 103 -378 373
-720 763 -965 325 -204 807 -382 1210 -446 481 -78 787 -100 1370 -101 479 0
559 3 930 41 848 85 1749 309 2810 697 2177 797 3647 1840 4492 3187 166 266
286 549 340 806 20 94 23 137 22 319 0 192 -2 219 -26 315 -101 404 -345 727
-731 967 -294 182 -685 302 -1167 358 -128 15 -731 28 -900 19z"/>
<path d="M4985 5718 c-10 -29 -18 -61 -17 -72 0 -10 -7 -37 -17 -60 -10 -22
-87 -219 -171 -436 -83 -217 -160 -404 -170 -415 -10 -11 -29 -51 -43 -90 -19
-53 -150 -390 -184 -472 -4 -10 45 -13 224 -13 l230 0 10 23 c6 13 34 81 63
152 29 72 56 133 59 136 3 4 153 9 333 12 l328 6 25 -49 c14 -27 25 -60 25
-74 0 -13 6 -26 13 -29 8 -3 29 -39 47 -81 l34 -76 218 0 c120 0 218 4 218 9
0 4 -34 91 -76 192 -41 101 -104 255 -140 342 -36 86 -62 162 -59 167 3 6 1
10 -5 10 -6 0 -9 4 -5 9 3 5 -8 43 -24 83 -17 40 -95 231 -174 423 l-143 350
-290 3 -290 2 -19 -52z m363 -538 c28 -69 74 -179 102 -245 27 -66 50 -121 50
-122 0 -2 -90 -3 -201 -3 l-200 0 6 23 c4 12 31 85 60 162 29 77 68 181 87
232 18 50 36 89 39 85 3 -4 29 -63 57 -132z"/>
<path d="M1170 5218 c0 -484 2 -530 20 -613 37 -164 116 -288 243 -379 132
-94 230 -119 477 -119 184 0 260 11 374 53 94 36 248 186 302 295 61 127 67
162 71 460 3 149 9 274 14 279 5 6 9 127 9 278 l0 268 -230 0 -230 0 7 -495
c5 -373 3 -495 -5 -495 -7 0 -12 -10 -12 -22 -1 -38 -35 -101 -73 -135 -67
-59 -222 -81 -335 -48 -59 18 -160 105 -163 140 0 11 -3 253 -6 538 l-4 517
-230 0 -229 0 0 -522z"/>
<path d="M6350 5485 c0 -163 4 -255 10 -255 6 0 10 -51 10 -134 0 -79 -4 -137
-10 -141 -5 -3 -10 -26 -10 -51 0 -24 5 -44 10 -44 6 0 10 -127 10 -361 l0
-361 478 5 c442 4 484 6 577 26 156 34 231 75 351 195 157 158 192 246 201
513 6 174 -4 272 -38 370 -10 31 -17 59 -14 63 11 18 -117 198 -184 258 -47
43 -142 101 -200 123 -119 44 -186 49 -703 49 l-488 0 0 -255z m825 -124 c75
-14 165 -50 165 -67 0 -8 6 -14 14 -14 19 0 50 -53 71 -120 22 -73 31 -292 16
-389 -19 -120 -64 -201 -131 -236 -41 -21 -161 -35 -305 -35 l-136 0 3 368 c1
202 4 395 6 430 l4 62 51 0 c29 0 58 4 66 9 15 10 100 6 176 -8z"/>
<path d="M8210 5566 c0 -106 4 -177 10 -181 6 -4 10 -223 10 -626 l0 -619 149
0 c81 0 176 -3 211 -7 l62 -6 -6 134 c-3 74 -8 156 -12 183 -4 31 -2 51 5 55
7 5 8 63 0 206 -6 110 -9 224 -7 254 l3 54 47 -71 c26 -39 50 -82 54 -96 3
-14 10 -26 15 -26 5 0 9 -7 9 -15 0 -19 65 -121 82 -127 13 -5 128 -181 133
-202 4 -23 20 -53 52 -103 l34 -53 107 0 107 1 87 147 c47 81 131 221 185 312
l98 165 3 -408 2 -407 220 0 220 0 0 805 0 805 -177 0 -178 0 -30 -48 c-16
-26 -58 -92 -93 -147 -36 -55 -79 -122 -97 -150 -17 -27 -73 -115 -124 -195
-51 -80 -121 -189 -156 -243 l-64 -99 -36 56 c-20 31 -39 56 -44 56 -12 0
-304 471 -304 490 0 8 -37 74 -82 145 l-82 130 -207 3 -206 2 0 -174z"/>
<path d="M3682 5404 c-7 -8 -26 -14 -41 -14 -17 0 -52 -15 -81 -35 -29 -19
-57 -35 -64 -35 -21 0 -96 -71 -96 -90 0 -20 -17 -36 -27 -26 -4 4 -1 12 5 18
16 16 15 97 0 130 -12 25 -18 27 -98 32 -47 3 -140 8 -207 10 l-123 4 0 -39
c0 -21 5 -41 10 -44 14 -8 13 -95 -1 -95 -7 0 -9 -21 -4 -67 4 -38 9 -273 11
-524 l4 -457 176 -4 c96 -2 193 -2 215 0 l39 4 0 123 c0 72 4 126 10 130 14 9
13 300 -2 324 -15 25 5 178 31 229 25 48 43 64 83 68 17 2 37 9 45 15 18 15
121 6 160 -15 18 -9 40 -35 55 -63 l25 -48 1 -379 c1 -209 4 -382 8 -385 3 -3
109 -7 235 -8 l229 -1 0 203 c0 125 -4 206 -10 210 -15 9 -13 278 2 293 8 8 8
15 -1 26 -7 8 -12 31 -11 53 1 137 -44 244 -153 356 -42 42 -79 78 -84 78 -4
1 -19 3 -33 4 -14 1 -47 7 -73 14 -78 19 -220 22 -235 5z"/>
<path d="M4443 3579 c-47 -14 -83 -62 -83 -111 0 -52 36 -88 118 -118 75 -28
96 -54 56 -72 -21 -10 -35 -9 -75 5 -48 18 -49 17 -79 -5 -16 -12 -30 -27 -30
-34 0 -23 90 -58 154 -58 168 -2 216 156 68 220 -95 41 -107 49 -107 69 0 25
53 32 97 14 27 -11 32 -10 60 18 l31 31 -27 17 c-48 32 -122 42 -183 24z"/>
<path d="M2282 3438 c3 -131 5 -146 26 -176 80 -111 274 -98 332 23 19 40 21
58 18 155 -1 60 -7 113 -13 119 -5 5 -22 13 -37 16 -24 6 -28 4 -28 -13 0 -12
-4 -24 -10 -27 -6 -3 -10 -50 -10 -104 0 -84 -3 -102 -21 -125 -17 -22 -28
-26 -69 -26 -38 0 -54 5 -70 22 -18 20 -20 35 -20 150 l0 128 -51 0 -50 0 3
-142z"/>
<path d="M2970 3496 c0 -47 5 -88 10 -91 15 -9 12 -65 -2 -65 -7 0 -49 51 -94
113 -78 108 -82 112 -121 115 l-40 3 -6 -122 c-4 -67 -7 -153 -7 -191 l0 -68
47 0 46 0 -6 135 c-4 74 -4 135 1 135 9 0 74 -101 74 -115 0 -5 23 -43 50 -82
l50 -73 49 0 49 0 0 50 c0 30 -4 50 -11 50 -11 0 -9 56 7 228 l6 62 -51 0 -51
0 0 -84z"/>
<path d="M3134 3385 l1 -195 32 0 c17 0 34 4 37 9 3 4 8 92 11 195 l6 186 -43
0 -44 0 0 -195z"/>
<path d="M3250 3567 c0 -9 9 -24 20 -34 10 -10 19 -27 18 -38 -1 -11 24 -78
55 -150 l56 -130 43 -3 c41 -3 45 -1 61 33 9 19 20 35 25 35 10 0 45 96 47
127 0 12 8 28 17 35 16 12 58 106 58 128 0 6 -22 10 -50 10 -48 0 -50 -1 -66
-37 -29 -71 -45 -123 -39 -133 4 -6 -1 -13 -9 -16 -8 -3 -18 -15 -21 -25 -6
-19 -8 -19 -31 6 -13 14 -23 29 -22 33 2 4 -5 18 -15 32 -9 14 -19 41 -21 60
-7 51 -16 70 -35 70 -9 0 -33 3 -53 6 -31 5 -38 4 -38 -9z"/>
<path d="M3681 3407 c0 -95 3 -177 7 -184 7 -11 65 -19 205 -29 l77 -6 0 41 0
41 -100 0 -100 0 0 39 c0 39 22 72 35 51 3 -5 39 -10 81 -10 l74 0 0 40 0 40
-95 0 -95 0 0 35 0 35 100 0 100 0 0 40 0 40 -145 0 -144 0 0 -173z"/>
<path d="M4010 3384 l0 -195 48 3 47 3 0 73 c0 68 1 72 22 72 34 0 69 -40 88
-97 l17 -53 49 0 c34 0 49 4 49 13 0 20 -45 126 -61 146 -14 15 -12 20 13 45
54 53 29 147 -47 176 -15 6 -71 10 -126 10 l-99 0 0 -196z m181 116 c23 -13
25 -53 3 -74 -8 -9 -32 -16 -52 -16 l-37 0 0 50 c0 50 0 50 33 50 18 0 42 -5
53 -10z"/>
<path d="M4700 3385 l0 -195 44 0 c31 0 46 5 50 16 3 9 6 89 6 179 0 90 -3
170 -6 179 -4 11 -19 16 -50 16 l-44 0 0 -195z"/>
<path d="M4850 3385 l0 -195 69 0 c39 0 73 5 76 10 3 6 26 10 51 10 96 0 174
79 174 177 0 57 -36 120 -83 147 -41 24 -162 46 -249 46 l-38 0 0 -195z m225
121 c70 -30 96 -122 52 -187 -30 -45 -60 -59 -129 -59 l-58 0 0 130 0 130 50
0 c28 0 66 -6 85 -14z"/>
<path d="M6742 3383 l-3 -193 101 0 c108 0 151 12 185 50 28 31 27 102 -1 131
-20 19 -20 24 -8 48 19 35 18 67 -3 102 -21 36 -29 38 -163 47 l-105 7 -3
-192z m162 117 c19 -7 26 -17 26 -35 0 -27 -30 -45 -76 -45 -22 0 -24 4 -24
45 0 41 2 45 24 45 14 0 36 -4 50 -10z m36 -169 c13 -25 13 -27 -6 -45 -9 -10
-33 -16 -60 -16 l-44 0 0 40 0 40 50 0 c38 0 52 -4 60 -19z"/>
<path d="M8357 3548 c-18 -18 -66 -96 -106 -173 -41 -77 -77 -144 -82 -149
-23 -25 -8 -36 44 -36 53 0 54 1 72 40 15 34 23 40 49 41 17 0 62 2 99 4 66 4
68 3 78 -23 17 -45 39 -62 81 -62 21 0 38 3 38 8 0 4 -43 88 -95 187 -52 99
-95 183 -95 187 0 20 -52 5 -83 -24z m81 -175 c10 -32 10 -32 -23 -39 -18 -3
-42 -3 -53 0 -17 6 -18 10 -8 39 6 17 18 42 26 54 l14 21 16 -21 c9 -12 22
-36 28 -54z"/>
<path d="M8780 3572 c0 -4 36 -57 80 -117 l80 -109 0 -78 0 -78 50 0 50 0 0
83 0 82 80 103 c44 56 80 107 80 112 0 6 -24 10 -53 10 l-54 0 -49 -70 c-27
-38 -52 -69 -56 -70 -5 0 -29 32 -54 70 l-47 70 -53 0 c-30 0 -54 -4 -54 -8z"/>
<path d="M5412 3558 c-5 -7 -49 -88 -97 -180 l-87 -168 39 0 c35 0 41 4 56 35
l17 35 103 0 103 0 17 -35 c14 -30 21 -35 52 -35 19 0 35 2 35 6 0 3 -41 84
-91 180 -77 148 -94 174 -114 174 -12 0 -27 -6 -33 -12z m98 -220 c0 -5 -31
-8 -70 -8 -38 0 -70 2 -70 5 0 9 51 109 63 123 8 11 18 -1 43 -50 18 -34 33
-66 34 -70z"/>
<path d="M5710 3390 l0 -180 110 0 c113 0 148 9 194 49 48 43 65 146 33 208
-39 74 -111 103 -257 103 l-80 0 0 -180z m197 119 c40 -15 71 -47 84 -86 9
-28 8 -43 -6 -80 -23 -61 -61 -83 -142 -83 l-63 0 0 130 0 130 49 0 c27 0 62
-5 78 -11z"/>
<path d="M6452 3558 c-5 -7 -24 -42 -42 -78 -18 -36 -43 -75 -56 -87 -13 -12
-24 -31 -24 -43 0 -11 -14 -47 -30 -80 l-30 -60 38 0 c34 0 40 4 55 35 l17 35
97 -6 c87 -5 101 -9 121 -31 12 -13 22 -31 22 -39 0 -10 13 -14 50 -14 28 0
50 2 50 3 0 10 -33 67 -41 72 -5 4 -7 10 -4 14 2 5 -9 23 -25 42 -17 18 -55
82 -86 141 -46 91 -59 108 -78 108 -13 0 -28 -6 -34 -12z m73 -160 c14 -26 25
-52 25 -58 0 -6 -28 -10 -70 -10 -38 0 -70 2 -70 5 0 8 40 85 58 113 17 26 18
25 57 -50z"/>
<path d="M7260 3403 c0 -102 -4 -163 -10 -163 -5 0 -10 -11 -10 -25 0 -25 14
-33 25 -15 9 14 75 13 75 -1 0 -8 4 -8 14 0 11 9 20 9 35 2 11 -6 47 -11 80
-11 l61 0 0 41 0 41 -102 -3 -103 -4 0 50 c0 50 0 50 34 53 19 2 44 -2 56 -8
12 -6 41 -10 66 -8 43 3 44 4 47 39 l3 36 -103 -1 c-101 -1 -103 -1 -106 23
-2 12 -1 34 2 47 6 23 9 24 102 24 91 0 95 1 92 21 -3 19 -10 20 -131 22
l-127 2 0 -162z"/>
<path d="M7586 3507 c-3 -33 -6 -118 -6 -188 l0 -129 45 0 45 0 0 75 c0 74 0
75 25 75 34 0 67 -37 84 -94 15 -53 26 -63 47 -45 11 9 20 9 41 0 14 -6 28 -9
31 -7 7 7 -19 66 -29 66 -4 0 -17 20 -28 45 -11 25 -27 48 -35 51 -12 5 -8 13
19 39 27 25 35 40 35 68 0 75 -62 108 -196 106 l-71 -2 -7 -60z m186 -4 c24
-21 23 -65 -2 -88 -14 -13 -29 -16 -56 -12 -20 3 -39 8 -42 11 -3 3 -7 28 -10
56 l-5 50 48 0 c31 0 55 -6 67 -17z"/>
<path d="M7920 3538 c0 -27 2 -28 54 -28 l55 0 -2 -52 c-1 -29 -1 -101 1 -160
l2 -108 45 0 45 0 0 109 c0 63 -4 112 -10 116 -5 3 -10 27 -10 52 l0 46 63 -7
64 -6 -5 29 -4 30 -149 3 -149 3 0 -27z"/>
<path d="M7096 3483 c-3 -42 -6 -125 -6 -185 l0 -109 48 3 47 3 -2 70 c-1 39
-5 121 -9 183 l-6 112 -32 0 -33 0 -7 -77z"/>
<path d="M7627 3052 c-9 -16 -21 -41 -26 -55 -10 -26 -9 -27 27 -27 32 1 42 7
75 49 20 27 37 52 37 55 0 3 -22 6 -48 6 -42 0 -50 -3 -65 -28z"/>
<path d="M2373 2898 c-18 -35 -62 -119 -98 -187 -36 -68 -65 -127 -65 -132 0
-5 23 -9 50 -9 48 0 51 2 67 35 l17 35 96 0 96 0 15 -32 c13 -31 18 -33 67
-36 28 -2 52 1 52 6 0 10 -80 166 -157 307 -35 64 -41 70 -73 73 -34 3 -36 1
-67 -60z m95 -133 l22 -45 -51 0 c-27 0 -49 3 -47 8 23 47 44 82 48 82 3 0 16
-20 28 -45z"/>
<path d="M2860 2766 l0 -196 115 0 c131 0 163 10 211 61 42 47 57 90 52 149
-7 67 -44 121 -105 151 -40 20 -68 24 -160 27 l-113 4 0 -196z m220 99 c63
-33 78 -131 27 -182 -23 -24 -78 -42 -124 -43 -23 0 -23 2 -23 120 l0 120 45
0 c26 0 59 -7 75 -15z"/>
<path d="M4218 2946 c-15 -11 -198 -345 -198 -361 0 -3 15 -5 34 -5 28 0 38 6
55 35 l20 35 102 0 c110 0 128 -8 129 -57 0 -21 5 -23 50 -23 28 0 50 5 50 10
0 18 -60 130 -69 130 -13 0 -121 207 -121 231 0 22 -26 25 -52 5z m52 -166
c17 -34 28 -65 25 -70 -7 -11 -118 -14 -128 -4 -7 7 54 134 65 134 4 0 21 -27
38 -60z"/>
<path d="M4490 2765 l0 -195 50 0 49 0 3 112 3 111 78 -111 79 -112 49 0 49 0
-2 193 -3 192 -47 3 -48 3 0 -112 0 -112 -81 112 -80 111 -50 0 -49 0 0 -195z"/>
<path d="M5020 2943 c-105 -45 -155 -154 -115 -251 36 -85 106 -127 215 -127
76 0 104 10 160 54 l25 20 -29 30 c-36 37 -40 38 -78 6 -58 -49 -169 -25 -197
44 -40 95 65 188 165 146 21 -9 45 -22 54 -30 13 -12 20 -9 48 16 29 26 32 32
20 46 -7 9 -35 27 -63 39 -59 28 -150 31 -205 7z"/>
<path d="M5320 2765 l0 -195 50 0 50 0 0 195 0 195 -50 0 -50 0 0 -195z"/>
<path d="M6140 2950 c0 -5 -7 -10 -15 -10 -13 0 -15 -27 -15 -179 l0 -178 105
-7 c91 -6 110 -5 148 12 83 37 131 135 108 220 -27 96 -88 131 -233 132 -37 0
-70 5 -73 10 -3 6 -10 10 -16 10 -5 0 -9 -4 -9 -10z m196 -97 c39 -44 46 -76
30 -138 -15 -60 -54 -85 -133 -85 l-53 0 0 128 c0 71 2 131 5 133 2 3 30 3 62
1 51 -3 61 -7 89 -39z"/>
<path d="M6522 2775 c3 -102 9 -189 12 -193 4 -4 68 -9 142 -10 l134 -4 0 41
0 41 -100 0 -100 0 0 40 0 40 95 0 95 0 0 40 0 40 -95 0 -95 0 0 35 0 35 101
0 100 0 -3 38 -3 37 -144 3 -144 3 5 -186z"/>
<path d="M7010 2765 l0 -195 50 0 50 0 0 108 1 107 52 -82 c28 -46 55 -83 60
-83 4 0 31 36 60 80 l52 80 3 -105 3 -105 49 0 50 0 0 195 0 195 -50 0 -51 0
-57 -89 -57 -89 -57 89 -57 89 -51 0 -50 0 0 -195z"/>
<path d="M7500 2765 l0 -195 204 0 204 0 47 65 47 66 46 -65 47 -66 58 0 c31
0 57 3 57 6 0 3 -31 46 -70 94 -61 78 -69 93 -64 119 4 18 20 41 39 55 17 14
39 40 48 58 16 33 16 33 -11 39 -15 4 -35 10 -44 14 -13 5 -20 1 -25 -11 -3
-11 -17 -29 -30 -41 -13 -12 -23 -29 -23 -36 0 -8 -8 -18 -17 -21 -12 -5 -33
10 -75 54 -55 57 -78 72 -78 50 0 -7 -6 -7 -19 0 -51 27 -41 -2 34 -98 l64
-83 -72 -93 c-71 -91 -72 -92 -77 -62 l-5 31 -97 3 -98 3 0 39 0 40 95 0 95 0
0 40 0 40 -95 0 -95 0 0 35 0 35 101 0 100 0 -3 38 -3 37 -142 3 -143 3 0
-196z"/>
<path d="M8305 2950 c-3 -5 -17 -10 -31 -10 -17 0 -24 -5 -24 -20 0 -11 -4
-20 -10 -20 -14 0 -12 -74 2 -88 9 -9 9 -15 0 -24 -8 -8 -12 -48 -12 -115 l0
-103 50 0 49 0 0 195 c0 176 -5 215 -24 185z"/>
<path d="M8535 2949 c-4 -5 -16 -9 -28 -9 -23 -1 -57 -21 -57 -35 0 -4 -14
-22 -31 -39 -29 -28 -32 -38 -35 -101 -3 -61 0 -75 22 -107 13 -21 30 -38 36
-38 6 0 31 -9 55 -21 74 -36 184 -25 248 24 20 16 20 16 0 36 l-20 21 -49 -25
c-27 -14 -59 -25 -71 -25 -35 0 -85 21 -85 35 0 7 -7 18 -15 25 -8 7 -21 26
-30 43 -14 28 -14 33 3 66 24 48 93 84 142 76 19 -4 49 -18 67 -31 l32 -24 17
25 c9 14 20 23 24 20 5 -3 11 -1 14 4 3 4 -20 26 -52 47 -49 33 -66 38 -119
40 -35 2 -65 -1 -68 -7z"/>
<path d="M8907 2938 c-14 -13 -44 -36 -67 -53 -62 -44 -92 -134 -56 -164 8 -7
17 -27 20 -46 9 -47 56 -81 126 -90 30 -5 66 -10 80 -12 95 -16 190 54 214
159 8 37 -12 118 -30 118 -8 0 -15 5 -15 10 -1 6 -2 15 -3 22 -1 16 -64 58
-87 58 -10 0 -21 5 -24 10 -3 6 -35 10 -69 10 -51 0 -68 -4 -89 -22z m157 -69
c20 -12 36 -25 36 -31 0 -5 9 -23 21 -39 20 -28 20 -32 6 -62 -19 -40 -51 -69
-99 -92 -31 -14 -43 -15 -73 -5 -69 23 -111 147 -67 199 44 52 118 65 176 30z"/>
<path d="M3515 2937 c-45 -21 -67 -51 -67 -93 0 -49 29 -76 117 -111 56 -23
71 -33 73 -52 2 -13 -1 -28 -6 -33 -17 -17 -70 -19 -108 -3 -34 14 -41 14 -71
0 -18 -9 -33 -20 -33 -26 0 -19 109 -62 138 -55 15 4 44 11 65 15 70 15 106
68 87 127 -12 37 -33 52 -105 78 -78 29 -104 63 -73 94 15 15 73 16 99 1 16
-8 26 -7 45 6 31 20 30 29 -3 44 -43 20 -124 23 -158 8z"/>
<path d="M3284 2929 c-3 -6 -1 -16 5 -22 14 -14 14 -54 1 -62 -6 -4 -10 -62
-10 -141 l0 -134 52 0 51 0 -6 122 c-4 66 -7 150 -7 185 l0 63 -39 0 c-22 0
-43 -5 -47 -11z"/>
<path d="M3760 2915 c0 -24 3 -25 55 -25 l55 0 0 -155 0 -155 35 0 34 0 3 153
3 152 53 3 c48 3 52 5 52 28 l0 24 -145 0 -145 0 0 -25z"/>
<path d="M5640 2931 c0 -6 -11 -22 -25 -37 -14 -15 -53 -82 -86 -148 -34 -67
-65 -125 -69 -131 -26 -37 -20 -45 34 -45 50 0 54 2 66 30 18 43 37 50 135 50
l85 0 17 -35 c15 -31 21 -35 56 -35 l38 0 -93 180 c-92 177 -94 180 -125 180
-18 0 -33 -4 -33 -9z m77 -155 c18 -35 29 -67 26 -70 -12 -12 -91 -6 -102 7
-8 10 -8 23 1 48 20 63 28 79 36 79 4 0 22 -29 39 -64z"/>
</g>
</svg>
